<?xml version="1.0" standalone="no"?>
<!DOCTYPE svg PUBLIC "-//W3C//DTD SVG 20010904//EN"
 "http://www.w3.org/TR/2001/REC-SVG-20010904/DTD/svg10.dtd">
<svg version="1.0" xmlns="http://www.w3.org/2000/svg"
 width="512.000000pt" height="512.000000pt" viewBox="0 0 512.000000 512.000000"
 preserveAspectRatio="xMidYMid meet">
<metadata>
Created by potrace 1.11, written by Peter Selinger 2001-2013
</metadata>
<g transform="translate(0.000000,512.000000) scale(0.100000,-0.100000)"
fill="#000000" stroke="none">
<path d="M780 3547 c-41 -89 -99 -214 -128 -277 -30 -63 -82 -176 -117 -250
-76 -163 -122 -261 -187 -400 -27 -58 -93 -197 -145 -310 -53 -113 -99 -210
-104 -216 -6 -7 19 -24 74 -49 45 -21 117 -56 161 -77 43 -21 81 -38 85 -38 8
0 19 23 261 540 81 173 164 351 185 395 21 44 71 152 112 239 40 88 75 161 77
163 2 2 3 -365 2 -816 l-1 -820 100 -47 c55 -25 159 -74 230 -107 72 -33 135
-64 141 -68 7 -6 21 14 42 59 17 37 55 119 85 182 30 63 73 153 94 200 147
313 284 604 339 719 35 73 64 135 64 136 0 2 36 78 80 170 44 92 80 168 80
170 0 12 103 215 112 221 6 4 8 3 5 -4 -11 -16 -12 -1621 -1 -1632 5 -5 79
-41 164 -80 85 -40 188 -88 229 -107 40 -19 77 -31 82 -26 4 4 86 175 182 378
96 204 193 411 217 460 23 50 58 124 77 165 48 104 84 180 170 359 40 84 73
155 73 156 0 2 34 73 75 160 41 86 75 161 75 166 0 5 3 9 8 9 4 0 6 -369 4
-820 l-3 -820 78 -36 c147 -67 278 -129 341 -160 63 -31 64 -31 72 -10 4 11
34 75 65 141 31 66 102 217 157 335 55 118 127 271 159 339 32 68 59 125 59
126 0 2 25 56 56 121 57 120 90 191 191 409 31 66 60 125 64 131 6 7 -13 21
-54 39 -34 16 -108 50 -164 76 -56 26 -104 44 -108 41 -3 -3 -15 -27 -26 -52
-56 -129 -564 -1208 -568 -1205 -4 4 -9 651 -10 1196 l-1 355 -72 33 c-40 18
-104 48 -143 66 -239 113 -289 135 -296 128 -4 -5 -48 -98 -99 -208 -51 -110
-121 -260 -156 -334 -35 -73 -64 -135 -64 -136 0 -2 -29 -63 -64 -136 -35 -74
-87 -186 -116 -249 -29 -63 -80 -173 -114 -245 -34 -71 -98 -207 -141 -302
-44 -94 -82 -169 -84 -167 -2 2 -6 275 -8 606 -2 332 -5 679 -6 773 l-2 169
-35 18 c-49 25 -462 218 -467 218 -2 0 -24 -44 -49 -97 -85 -182 -113 -240
-184 -394 -40 -85 -88 -188 -107 -229 -20 -41 -53 -111 -73 -155 -51 -109
-149 -318 -227 -485 -81 -173 -101 -214 -152 -325 -28 -60 -51 -108 -52 -105
-1 6 -8 712 -12 1209 -2 293 -4 345 -17 352 -26 15 -290 139 -295 139 -3 0
-46 20 -96 45 -50 25 -94 45 -98 45 -3 -1 -40 -74 -81 -163z"/>
</g>
</svg>
