<svg width="388" height="339" viewBox="0 0 388 339" version="1.1" xmlns="http://www.w3.org/2000/svg" xmlns:xlink="http://www.w3.org/1999/xlink">
<title>Frame</title>
<desc>Created using Figma</desc>
<g id="Canvas" transform="translate(61 -263)">
<clipPath id="clip-0" clip-rule="evenodd">
<path d="M -61 263L 327 263L 327 602L -61 602L -61 263Z" fill="#FFFFFF"/>
</clipPath>
<g id="Frame" clip-path="url(#clip-0)">
<g id="Group 2.4">
<g id="Rectangle">
<mask id="mask0_outline_ins">
<use xlink:href="#path0_fill" fill="white" transform="translate(-46 491)"/>
</mask>
<g mask="url(#mask0_outline_ins)">
<use xlink:href="#path1_stroke_2x" transform="translate(-46 491)" fill="#FCFF41"/>
</g>
</g>
</g>
<g id="Group 2.5">
<g id="Rectangle">
<mask id="mask1_outline_ins">
<use xlink:href="#path0_fill" fill="white" transform="translate(143 491)"/>
</mask>
<g mask="url(#mask1_outline_ins)">
<use xlink:href="#path1_stroke_2x" transform="translate(143 491)" fill="#FCFF41"/>
</g>
</g>
</g>
<g id="Group 2.9">
<g id="Rectangle">
<mask id="mask2_outline_ins">
<use xlink:href="#path2_fill" fill="white" transform="translate(-46 329)"/>
</mask>
<g mask="url(#mask2_outline_ins)">
<use xlink:href="#path3_stroke_2x" transform="translate(-46 329)" fill="#FCFF41"/>
</g>
</g>
</g>
<g id="Group 2.10">
<g id="Rectangle">
<mask id="mask3_outline_ins">
<use xlink:href="#path0_fill" fill="white" transform="translate(143 297)"/>
</mask>
<g mask="url(#mask3_outline_ins)">
<use xlink:href="#path1_stroke_2x" transform="translate(143 297)" fill="#FCFF41"/>
</g>
</g>
</g>
<g id="Group 2.8">
<g id="Rectangle">
<mask id="mask4_outline_ins">
<use xlink:href="#path4_fill" fill="white" transform="translate(-46 410)"/>
</mask>
<g mask="url(#mask4_outline_ins)">
<use xlink:href="#path5_stroke_2x" transform="translate(-46 410)" fill="#FCFF41"/>
</g>
</g>
</g>
<g id="HTTPS gateway">
<use xlink:href="#path6_fill" transform="translate(-45 410)" fill="#FFFFFF"/>
</g>
<g id="IPFS">
<use xlink:href="#path7_fill" transform="translate(-46 505)" fill="#FFFFFF"/>
</g>
<g id="Ethereum">
<use xlink:href="#path8_fill" transform="translate(143 505)" fill="#FFFFFF"/>
</g>
<g id="nnn.freeport.global">
<use xlink:href="#path9_fill" transform="translate(157 311)" fill="#FFFFFF"/>
</g>
<g id="(Backend)">
<use xlink:href="#path10_fill" transform="translate(4 343)" fill="#FFFFFF"/>
</g>
<g id="(Frontend)">
<use xlink:href="#path11_fill" transform="translate(190 343)" fill="#FFFFFF"/>
</g>
<g id="Group 3">
<g id="Arrow">
<use xlink:href="#path12_stroke" transform="matrix(-4.37114e-08 1 -1 -4.37114e-08 23 383)" fill="#FCFF41"/>
</g>
<g id="Arrow">
<use xlink:href="#path12_stroke" transform="matrix(1.19249e-08 -1 1 1.19249e-08 52 402)" fill="#FCFF41"/>
</g>
</g>
<g id="Group 3.1">
<g id="Arrow">
<use xlink:href="#path12_stroke" transform="matrix(-4.37114e-08 1 -1 -4.37114e-08 212 383)" fill="#FCFF41"/>
</g>
<g id="Arrow">
<use xlink:href="#path12_stroke" transform="matrix(1.19249e-08 -1 1 1.19249e-08 241 402)" fill="#FCFF41"/>
</g>
</g>
<g id="Group 3.3">
<g id="Arrow">
<use xlink:href="#path12_stroke" transform="matrix(-4.37114e-08 1 -1 -4.37114e-08 212 464)" fill="#FCFF41"/>
</g>
<g id="Arrow">
<use xlink:href="#path12_stroke" transform="matrix(1.19249e-08 -1 1 1.19249e-08 241 483)" fill="#FCFF41"/>
</g>
</g>
<g id="Group 3.4">
<g id="Arrow">
<use xlink:href="#path12_stroke" transform="matrix(-4.37114e-08 1 -1 -4.37114e-08 23 464)" fill="#FCFF41"/>
</g>
<g id="Arrow">
<use xlink:href="#path12_stroke" transform="matrix(1.19249e-08 -1 1 1.19249e-08 52 483)" fill="#FCFF41"/>
</g>
</g>
</g>
</g>
<defs>
<path id="path0_fill" d="M 0 0L 168 0L 168 78L 0 78L 0 0Z"/>
<path id="path1_stroke_2x" d="M 0 0L 0 -3L -3 -3L -3 0L 0 0ZM 168 0L 171 0L 171 -3L 168 -3L 168 0ZM 168 78L 168 81L 171 81L 171 78L 168 78ZM 0 78L -3 78L -3 81L 0 81L 0 78ZM 0 3L 168 3L 168 -3L 0 -3L 0 3ZM 165 0L 165 78L 171 78L 171 0L 165 0ZM 168 75L 0 75L 0 81L 168 81L 168 75ZM 3 78L 3 0L -3 0L -3 78L 3 78Z"/>
<path id="path2_fill" d="M 0 0L 168 0L 168 46L 0 46L 0 0Z"/>
<path id="path3_stroke_2x" d="M 0 0L 0 -3L -3 -3L -3 0L 0 0ZM 168 0L 171 0L 171 -3L 168 -3L 168 0ZM 168 46L 168 49L 171 49L 171 46L 168 46ZM 0 46L -3 46L -3 49L 0 49L 0 46ZM 0 3L 168 3L 168 -3L 0 -3L 0 3ZM 165 0L 165 46L 171 46L 171 0L 165 0ZM 168 43L 0 43L 0 49L 168 49L 168 43ZM 3 46L 3 0L -3 0L -3 46L 3 46Z"/>
<path id="path4_fill" d="M 0 0L 357 0L 357 46L 0 46L 0 0Z"/>
<path id="path5_stroke_2x" d="M 0 0L 0 -3L -3 -3L -3 0L 0 0ZM 357 0L 360 0L 360 -3L 357 -3L 357 0ZM 357 46L 357 49L 360 49L 360 46L 357 46ZM 0 46L -3 46L -3 49L 0 49L 0 46ZM 0 3L 357 3L 357 -3L 0 -3L 0 3ZM 354 0L 354 46L 360 46L 360 0L 354 0ZM 357 43L 0 43L 0 49L 357 49L 357 43ZM 3 46L 3 0L -3 0L -3 46L 3 46Z"/>
<path id="path6_fill" d="M 131.116 19.6L 132.124 19.6L 132.124 23.32L 135.7 23.32L 135.7 19.6L 136.708 19.6L 136.708 28L 135.7 28L 135.7 24.256L 132.124 24.256L 132.124 28L 131.116 28L 131.116 19.6ZM 138.308 19.6L 144.212 19.6L 144.212 20.536L 141.764 20.536L 141.764 28L 140.756 28L 140.756 20.536L 138.308 20.536L 138.308 19.6ZM 145.656 19.6L 151.56 19.6L 151.56 20.536L 149.112 20.536L 149.112 28L 148.104 28L 148.104 20.536L 145.656 20.536L 145.656 19.6ZM 154.311 24.544L 154.311 28L 153.303 28L 153.303 19.6L 156.303 19.6C 156.735 19.6 157.111 19.664 157.431 19.792C 157.751 19.912 158.015 20.076 158.223 20.284C 158.439 20.492 158.599 20.736 158.703 21.016C 158.815 21.288 158.871 21.576 158.871 21.88L 158.871 22.24C 158.871 22.544 158.815 22.836 158.703 23.116C 158.599 23.396 158.439 23.644 158.223 23.86C 158.007 24.068 157.739 24.236 157.419 24.364C 157.099 24.484 156.727 24.544 156.303 24.544L 154.311 24.544ZM 154.311 23.608L 156.183 23.608C 157.303 23.608 157.863 23.128 157.863 22.168L 157.863 21.952C 157.863 21.528 157.723 21.188 157.443 20.932C 157.171 20.668 156.751 20.536 156.183 20.536L 154.311 20.536L 154.311 23.608ZM 165.283 22.024C 165.283 21.752 165.227 21.512 165.115 21.304C 165.011 21.096 164.867 20.924 164.683 20.788C 164.499 20.652 164.287 20.548 164.047 20.476C 163.807 20.404 163.555 20.368 163.291 20.368C 163.059 20.368 162.839 20.4 162.631 20.464C 162.423 20.52 162.235 20.604 162.067 20.716C 161.907 20.828 161.779 20.968 161.683 21.136C 161.587 21.296 161.539 21.484 161.539 21.7L 161.539 21.772C 161.539 22.004 161.587 22.204 161.683 22.372C 161.779 22.532 161.919 22.672 162.103 22.792C 162.295 22.904 162.531 23 162.811 23.08C 163.091 23.152 163.419 23.216 163.795 23.272C 164.675 23.408 165.323 23.668 165.739 24.052C 166.155 24.428 166.363 24.936 166.363 25.576L 166.363 25.72C 166.363 26.08 166.299 26.412 166.171 26.716C 166.051 27.012 165.867 27.268 165.619 27.484C 165.379 27.7 165.079 27.868 164.719 27.988C 164.359 28.108 163.943 28.168 163.471 28.168C 162.935 28.168 162.459 28.092 162.043 27.94C 161.635 27.78 161.291 27.564 161.011 27.292C 160.739 27.012 160.531 26.688 160.387 26.32C 160.243 25.944 160.171 25.536 160.171 25.096L 160.171 24.736L 161.179 24.736L 161.179 25.024C 161.179 25.76 161.379 26.312 161.779 26.68C 162.187 27.048 162.751 27.232 163.471 27.232C 164.095 27.232 164.563 27.096 164.875 26.824C 165.195 26.544 165.355 26.176 165.355 25.72L 165.355 25.648C 165.355 25.208 165.191 24.872 164.863 24.64C 164.543 24.408 164.019 24.24 163.291 24.136C 162.867 24.08 162.483 23.996 162.139 23.884C 161.803 23.764 161.515 23.612 161.275 23.428C 161.035 23.236 160.851 23.008 160.723 22.744C 160.595 22.48 160.531 22.168 160.531 21.808L 160.531 21.664C 160.531 21.336 160.599 21.036 160.735 20.764C 160.871 20.492 161.059 20.256 161.299 20.056C 161.547 19.856 161.839 19.704 162.175 19.6C 162.519 19.488 162.895 19.432 163.303 19.432C 163.775 19.432 164.195 19.5 164.563 19.636C 164.939 19.772 165.255 19.956 165.511 20.188C 165.767 20.412 165.959 20.68 166.087 20.992C 166.223 21.296 166.291 21.616 166.291 21.952L 166.291 22.456L 165.283 22.456L 165.283 22.024ZM 179.894 27.088L 179.75 27.088C 179.558 27.448 179.294 27.72 178.958 27.904C 178.63 28.08 178.27 28.168 177.878 28.168C 177.478 28.168 177.102 28.1 176.75 27.964C 176.398 27.828 176.086 27.632 175.814 27.376C 175.55 27.12 175.338 26.804 175.178 26.428C 175.026 26.044 174.95 25.608 174.95 25.12L 174.95 24.928C 174.95 24.448 175.03 24.02 175.19 23.644C 175.35 23.26 175.562 22.94 175.826 22.684C 176.09 22.42 176.398 22.22 176.75 22.084C 177.102 21.948 177.47 21.88 177.854 21.88C 178.286 21.88 178.662 21.976 178.982 22.168C 179.31 22.352 179.566 22.624 179.75 22.984L 179.894 22.984L 179.894 22.048L 180.83 22.048L 180.83 29.464C 180.83 29.736 180.742 29.96 180.566 30.136C 180.398 30.312 180.178 30.4 179.906 30.4L 176.03 30.4L 176.03 29.536L 179.57 29.536C 179.786 29.536 179.894 29.416 179.894 29.176L 179.894 27.088ZM 177.902 27.28C 178.182 27.28 178.442 27.228 178.682 27.124C 178.922 27.02 179.13 26.872 179.306 26.68C 179.49 26.488 179.634 26.26 179.738 25.996C 179.842 25.724 179.894 25.424 179.894 25.096L 179.894 24.952C 179.894 24.632 179.842 24.34 179.738 24.076C 179.634 23.804 179.49 23.572 179.306 23.38C 179.13 23.188 178.918 23.04 178.67 22.936C 178.43 22.824 178.174 22.768 177.902 22.768C 177.622 22.768 177.358 22.82 177.11 22.924C 176.87 23.028 176.658 23.176 176.474 23.368C 176.298 23.56 176.158 23.788 176.054 24.052C 175.958 24.316 175.91 24.608 175.91 24.928L 175.91 25.12C 175.91 25.456 175.958 25.756 176.054 26.02C 176.158 26.284 176.298 26.512 176.474 26.704C 176.658 26.888 176.87 27.032 177.11 27.136C 177.35 27.232 177.614 27.28 177.902 27.28ZM 187.038 26.992L 186.894 26.992C 186.702 27.392 186.434 27.688 186.09 27.88C 185.754 28.072 185.398 28.168 185.022 28.168C 184.63 28.168 184.266 28.104 183.93 27.976C 183.594 27.84 183.298 27.644 183.042 27.388C 182.794 27.124 182.598 26.804 182.454 26.428C 182.31 26.052 182.238 25.616 182.238 25.12L 182.238 24.928C 182.238 24.44 182.31 24.008 182.454 23.632C 182.598 23.256 182.794 22.94 183.042 22.684C 183.298 22.42 183.594 22.22 183.93 22.084C 184.266 21.948 184.622 21.88 184.998 21.88C 185.406 21.88 185.774 21.972 186.102 22.156C 186.438 22.332 186.702 22.608 186.894 22.984L 187.038 22.984L 187.038 22.048L 187.974 22.048L 187.974 26.776C 187.974 27.016 188.082 27.136 188.298 27.136L 188.598 27.136L 188.598 28L 187.962 28C 187.69 28 187.466 27.912 187.29 27.736C 187.122 27.56 187.038 27.336 187.038 27.064L 187.038 26.992ZM 185.118 27.28C 185.398 27.28 185.654 27.228 185.886 27.124C 186.126 27.02 186.33 26.872 186.498 26.68C 186.666 26.488 186.798 26.26 186.894 25.996C 186.99 25.724 187.038 25.424 187.038 25.096L 187.038 24.952C 187.038 24.632 186.99 24.34 186.894 24.076C 186.798 23.804 186.662 23.572 186.486 23.38C 186.318 23.188 186.114 23.04 185.874 22.936C 185.642 22.824 185.39 22.768 185.118 22.768C 184.838 22.768 184.582 22.82 184.35 22.924C 184.118 23.028 183.914 23.176 183.738 23.368C 183.57 23.552 183.438 23.78 183.342 24.052C 183.246 24.316 183.198 24.608 183.198 24.928L 183.198 25.12C 183.198 25.8 183.374 26.332 183.726 26.716C 184.086 27.092 184.55 27.28 185.118 27.28ZM 189.861 22.048L 191.733 22.048L 191.733 19.6L 192.669 19.6L 192.669 22.048L 194.973 22.048L 194.973 22.912L 192.669 22.912L 192.669 26.776C 192.669 27.016 192.777 27.136 192.993 27.136L 194.685 27.136L 194.685 28L 192.657 28C 192.385 28 192.161 27.912 191.985 27.736C 191.817 27.56 191.733 27.336 191.733 27.064L 191.733 22.912L 189.861 22.912L 189.861 22.048ZM 198.097 25.312C 198.121 25.904 198.305 26.38 198.649 26.74C 198.993 27.1 199.473 27.28 200.089 27.28C 200.369 27.28 200.613 27.248 200.821 27.184C 201.029 27.12 201.205 27.032 201.349 26.92C 201.501 26.808 201.621 26.68 201.709 26.536C 201.805 26.384 201.881 26.224 201.937 26.056L 202.825 26.296C 202.657 26.848 202.345 27.3 201.889 27.652C 201.441 27.996 200.833 28.168 200.065 28.168C 199.641 28.168 199.249 28.096 198.889 27.952C 198.537 27.8 198.233 27.588 197.977 27.316C 197.721 27.044 197.521 26.72 197.377 26.344C 197.233 25.968 197.161 25.552 197.161 25.096L 197.161 24.808C 197.161 24.392 197.233 24.004 197.377 23.644C 197.529 23.284 197.737 22.976 198.001 22.72C 198.265 22.456 198.573 22.252 198.925 22.108C 199.285 21.956 199.673 21.88 200.089 21.88C 200.577 21.88 200.997 21.972 201.349 22.156C 201.709 22.332 202.001 22.552 202.225 22.816C 202.457 23.08 202.625 23.368 202.729 23.68C 202.841 23.992 202.897 24.28 202.897 24.544L 202.897 25.312L 198.097 25.312ZM 200.089 22.768C 199.825 22.768 199.577 22.812 199.345 22.9C 199.121 22.98 198.921 23.096 198.745 23.248C 198.577 23.4 198.437 23.58 198.325 23.788C 198.221 23.988 198.153 24.208 198.121 24.448L 201.961 24.448C 201.945 24.192 201.881 23.96 201.769 23.752C 201.665 23.544 201.525 23.368 201.349 23.224C 201.181 23.08 200.985 22.968 200.761 22.888C 200.545 22.808 200.321 22.768 200.089 22.768ZM 209.909 28L 208.181 28L 207.461 22.48L 207.317 22.48L 206.597 28L 204.869 28L 203.933 22.048L 204.893 22.048L 205.685 27.568L 205.829 27.568L 206.525 22.048L 208.253 22.048L 208.949 27.568L 209.093 27.568L 209.885 22.048L 210.845 22.048L 209.909 28ZM 216.428 26.992L 216.284 26.992C 216.092 27.392 215.824 27.688 215.48 27.88C 215.144 28.072 214.788 28.168 214.412 28.168C 214.02 28.168 213.656 28.104 213.32 27.976C 212.984 27.84 212.688 27.644 212.432 27.388C 212.184 27.124 211.988 26.804 211.844 26.428C 211.7 26.052 211.628 25.616 211.628 25.12L 211.628 24.928C 211.628 24.44 211.7 24.008 211.844 23.632C 211.988 23.256 212.184 22.94 212.432 22.684C 212.688 22.42 212.984 22.22 213.32 22.084C 213.656 21.948 214.012 21.88 214.388 21.88C 214.796 21.88 215.164 21.972 215.492 22.156C 215.828 22.332 216.092 22.608 216.284 22.984L 216.428 22.984L 216.428 22.048L 217.364 22.048L 217.364 26.776C 217.364 27.016 217.472 27.136 217.688 27.136L 217.988 27.136L 217.988 28L 217.352 28C 217.08 28 216.856 27.912 216.68 27.736C 216.512 27.56 216.428 27.336 216.428 27.064L 216.428 26.992ZM 214.508 27.28C 214.788 27.28 215.044 27.228 215.276 27.124C 215.516 27.02 215.72 26.872 215.888 26.68C 216.056 26.488 216.188 26.26 216.284 25.996C 216.38 25.724 216.428 25.424 216.428 25.096L 216.428 24.952C 216.428 24.632 216.38 24.34 216.284 24.076C 216.188 23.804 216.052 23.572 215.876 23.38C 215.708 23.188 215.504 23.04 215.264 22.936C 215.032 22.824 214.78 22.768 214.508 22.768C 214.228 22.768 213.972 22.82 213.74 22.924C 213.508 23.028 213.304 23.176 213.128 23.368C 212.96 23.552 212.828 23.78 212.732 24.052C 212.636 24.316 212.588 24.608 212.588 24.928L 212.588 25.12C 212.588 25.8 212.764 26.332 213.116 26.716C 213.476 27.092 213.94 27.28 214.508 27.28ZM 223.776 26.92L 223.632 26.92C 223.44 27.304 223.188 27.608 222.876 27.832C 222.564 28.056 222.168 28.168 221.688 28.168C 221.36 28.168 221.056 28.112 220.776 28C 220.504 27.896 220.268 27.736 220.068 27.52C 219.876 27.304 219.724 27.036 219.612 26.716C 219.508 26.396 219.456 26.024 219.456 25.6L 219.456 22.048L 220.392 22.048L 220.392 25.48C 220.392 26.104 220.52 26.56 220.776 26.848C 221.032 27.136 221.424 27.28 221.952 27.28C 222.52 27.28 222.964 27.088 223.284 26.704C 223.612 26.312 223.776 25.792 223.776 25.144L 223.776 22.048L 224.712 22.048L 224.712 29.464C 224.712 29.736 224.624 29.96 224.448 30.136C 224.28 30.312 224.06 30.4 223.788 30.4L 220.392 30.4L 220.392 29.536L 223.452 29.536C 223.668 29.536 223.776 29.416 223.776 29.176L 223.776 26.92Z"/>
<path id="path7_fill" d="M 70.3127 19.6L 75.6407 19.6L 75.6407 20.536L 73.4807 20.536L 73.4807 27.064L 75.6407 27.064L 75.6407 28L 70.3127 28L 70.3127 27.064L 72.4727 27.064L 72.4727 20.536L 70.3127 20.536L 70.3127 19.6ZM 78.6803 24.544L 78.6803 28L 77.6723 28L 77.6723 19.6L 80.6723 19.6C 81.1043 19.6 81.4803 19.664 81.8003 19.792C 82.1203 19.912 82.3843 20.076 82.5923 20.284C 82.8083 20.492 82.9683 20.736 83.0723 21.016C 83.1843 21.288 83.2403 21.576 83.2403 21.88L 83.2403 22.24C 83.2403 22.544 83.1843 22.836 83.0723 23.116C 82.9683 23.396 82.8083 23.644 82.5923 23.86C 82.3763 24.068 82.1083 24.236 81.7883 24.364C 81.4683 24.484 81.0963 24.544 80.6723 24.544L 78.6803 24.544ZM 78.6803 23.608L 80.5523 23.608C 81.6723 23.608 82.2323 23.128 82.2323 22.168L 82.2323 21.952C 82.2323 21.528 82.0923 21.188 81.8123 20.932C 81.5403 20.668 81.1203 20.536 80.5523 20.536L 78.6803 20.536L 78.6803 23.608ZM 85.14 19.6L 90.3 19.6L 90.3 20.536L 86.148 20.536L 86.148 23.32L 90.228 23.32L 90.228 24.256L 86.148 24.256L 86.148 28L 85.14 28L 85.14 19.6ZM 96.9997 22.024C 96.9997 21.752 96.9437 21.512 96.8317 21.304C 96.7277 21.096 96.5837 20.924 96.3997 20.788C 96.2157 20.652 96.0037 20.548 95.7637 20.476C 95.5237 20.404 95.2717 20.368 95.0077 20.368C 94.7757 20.368 94.5557 20.4 94.3477 20.464C 94.1397 20.52 93.9517 20.604 93.7837 20.716C 93.6237 20.828 93.4957 20.968 93.3997 21.136C 93.3037 21.296 93.2557 21.484 93.2557 21.7L 93.2557 21.772C 93.2557 22.004 93.3037 22.204 93.3997 22.372C 93.4957 22.532 93.6357 22.672 93.8197 22.792C 94.0117 22.904 94.2477 23 94.5277 23.08C 94.8077 23.152 95.1357 23.216 95.5117 23.272C 96.3917 23.408 97.0397 23.668 97.4557 24.052C 97.8717 24.428 98.0797 24.936 98.0797 25.576L 98.0797 25.72C 98.0797 26.08 98.0157 26.412 97.8877 26.716C 97.7677 27.012 97.5837 27.268 97.3357 27.484C 97.0957 27.7 96.7957 27.868 96.4357 27.988C 96.0757 28.108 95.6597 28.168 95.1877 28.168C 94.6517 28.168 94.1757 28.092 93.7597 27.94C 93.3517 27.78 93.0077 27.564 92.7277 27.292C 92.4557 27.012 92.2477 26.688 92.1037 26.32C 91.9597 25.944 91.8877 25.536 91.8877 25.096L 91.8877 24.736L 92.8957 24.736L 92.8957 25.024C 92.8957 25.76 93.0957 26.312 93.4957 26.68C 93.9037 27.048 94.4677 27.232 95.1877 27.232C 95.8117 27.232 96.2797 27.096 96.5917 26.824C 96.9117 26.544 97.0717 26.176 97.0717 25.72L 97.0717 25.648C 97.0717 25.208 96.9077 24.872 96.5797 24.64C 96.2597 24.408 95.7357 24.24 95.0077 24.136C 94.5837 24.08 94.1997 23.996 93.8557 23.884C 93.5197 23.764 93.2317 23.612 92.9917 23.428C 92.7517 23.236 92.5677 23.008 92.4397 22.744C 92.3117 22.48 92.2477 22.168 92.2477 21.808L 92.2477 21.664C 92.2477 21.336 92.3157 21.036 92.4517 20.764C 92.5877 20.492 92.7757 20.256 93.0157 20.056C 93.2637 19.856 93.5557 19.704 93.8917 19.6C 94.2357 19.488 94.6117 19.432 95.0197 19.432C 95.4917 19.432 95.9117 19.5 96.2797 19.636C 96.6557 19.772 96.9717 19.956 97.2277 20.188C 97.4837 20.412 97.6757 20.68 97.8037 20.992C 97.9397 21.296 98.0077 21.616 98.0077 21.952L 98.0077 22.456L 96.9997 22.456L 96.9997 22.024Z"/>
<path id="path8_fill" d="M 55.7374 20.6L 60.8254 20.6L 60.8254 21.536L 56.7454 21.536L 56.7454 24.32L 60.7534 24.32L 60.7534 25.256L 56.7454 25.256L 56.7454 28.064L 60.8974 28.064L 60.8974 29L 55.7374 29L 55.7374 20.6ZM 62.797 23.048L 64.669 23.048L 64.669 20.6L 65.605 20.6L 65.605 23.048L 67.909 23.048L 67.909 23.912L 65.605 23.912L 65.605 27.776C 65.605 28.016 65.713 28.136 65.929 28.136L 67.621 28.136L 67.621 29L 65.593 29C 65.321 29 65.097 28.912 64.921 28.736C 64.753 28.56 64.669 28.336 64.669 28.064L 64.669 23.912L 62.797 23.912L 62.797 23.048ZM 71.2847 29L 70.3487 29L 70.3487 20.6L 71.2847 20.6L 71.2847 24.128L 71.4287 24.128C 71.6127 23.744 71.8687 23.44 72.1967 23.216C 72.5327 22.992 72.9407 22.88 73.4207 22.88C 74.0687 22.88 74.5927 23.096 74.9927 23.528C 75.4007 23.952 75.6047 24.592 75.6047 25.448L 75.6047 29L 74.6687 29L 74.6687 25.64C 74.6687 25.016 74.5287 24.548 74.2487 24.236C 73.9687 23.924 73.5887 23.768 73.1087 23.768C 72.5407 23.768 72.0927 23.964 71.7647 24.356C 71.4447 24.74 71.2847 25.256 71.2847 25.904L 71.2847 29ZM 78.3803 26.312C 78.4043 26.904 78.5883 27.38 78.9323 27.74C 79.2763 28.1 79.7563 28.28 80.3723 28.28C 80.6523 28.28 80.8963 28.248 81.1043 28.184C 81.3123 28.12 81.4883 28.032 81.6323 27.92C 81.7843 27.808 81.9043 27.68 81.9923 27.536C 82.0883 27.384 82.1643 27.224 82.2203 27.056L 83.1083 27.296C 82.9403 27.848 82.6283 28.3 82.1723 28.652C 81.7243 28.996 81.1163 29.168 80.3483 29.168C 79.9243 29.168 79.5323 29.096 79.1723 28.952C 78.8203 28.8 78.5163 28.588 78.2603 28.316C 78.0043 28.044 77.8043 27.72 77.6603 27.344C 77.5163 26.968 77.4443 26.552 77.4443 26.096L 77.4443 25.808C 77.4443 25.392 77.5163 25.004 77.6603 24.644C 77.8123 24.284 78.0203 23.976 78.2843 23.72C 78.5483 23.456 78.8563 23.252 79.2083 23.108C 79.5683 22.956 79.9563 22.88 80.3723 22.88C 80.8603 22.88 81.2803 22.972 81.6323 23.156C 81.9923 23.332 82.2843 23.552 82.5083 23.816C 82.7403 24.08 82.9083 24.368 83.0123 24.68C 83.1243 24.992 83.1803 25.28 83.1803 25.544L 83.1803 26.312L 78.3803 26.312ZM 80.3723 23.768C 80.1083 23.768 79.8603 23.812 79.6283 23.9C 79.4043 23.98 79.2043 24.096 79.0283 24.248C 78.8603 24.4 78.7203 24.58 78.6083 24.788C 78.5043 24.988 78.4363 25.208 78.4043 25.448L 82.2443 25.448C 82.2283 25.192 82.1643 24.96 82.0523 24.752C 81.9483 24.544 81.8083 24.368 81.6323 24.224C 81.4643 24.08 81.2683 23.968 81.0443 23.888C 80.8283 23.808 80.6043 23.768 80.3723 23.768ZM 84.708 23.048L 86.868 23.048L 86.868 23.84L 87.012 23.84C 87.164 23.512 87.38 23.272 87.66 23.12C 87.94 22.96 88.26 22.88 88.62 22.88C 89.22 22.88 89.704 23.076 90.072 23.468C 90.44 23.86 90.636 24.432 90.66 25.184L 89.676 25.328C 89.676 24.776 89.544 24.38 89.28 24.14C 89.016 23.892 88.692 23.768 88.308 23.768C 88.06 23.768 87.844 23.816 87.66 23.912C 87.484 24.008 87.336 24.14 87.216 24.308C 87.096 24.476 87.008 24.672 86.952 24.896C 86.896 25.12 86.868 25.36 86.868 25.616L 86.868 28.136L 88.38 28.136L 88.38 29L 84.564 29L 84.564 28.136L 85.932 28.136L 85.932 23.912L 84.708 23.912L 84.708 23.048ZM 93.0757 26.312C 93.0997 26.904 93.2837 27.38 93.6277 27.74C 93.9717 28.1 94.4517 28.28 95.0677 28.28C 95.3477 28.28 95.5917 28.248 95.7997 28.184C 96.0077 28.12 96.1837 28.032 96.3277 27.92C 96.4797 27.808 96.5997 27.68 96.6877 27.536C 96.7837 27.384 96.8597 27.224 96.9157 27.056L 97.8037 27.296C 97.6357 27.848 97.3237 28.3 96.8677 28.652C 96.4197 28.996 95.8117 29.168 95.0437 29.168C 94.6197 29.168 94.2277 29.096 93.8677 28.952C 93.5157 28.8 93.2117 28.588 92.9557 28.316C 92.6997 28.044 92.4997 27.72 92.3557 27.344C 92.2117 26.968 92.1397 26.552 92.1397 26.096L 92.1397 25.808C 92.1397 25.392 92.2117 25.004 92.3557 24.644C 92.5077 24.284 92.7157 23.976 92.9797 23.72C 93.2437 23.456 93.5517 23.252 93.9037 23.108C 94.2637 22.956 94.6517 22.88 95.0677 22.88C 95.5557 22.88 95.9757 22.972 96.3277 23.156C 96.6877 23.332 96.9797 23.552 97.2037 23.816C 97.4357 24.08 97.6037 24.368 97.7077 24.68C 97.8197 24.992 97.8757 25.28 97.8757 25.544L 97.8757 26.312L 93.0757 26.312ZM 95.0677 23.768C 94.8037 23.768 94.5557 23.812 94.3237 23.9C 94.0997 23.98 93.8997 24.096 93.7237 24.248C 93.5557 24.4 93.4157 24.58 93.3037 24.788C 93.1997 24.988 93.1317 25.208 93.0997 25.448L 96.9397 25.448C 96.9237 25.192 96.8597 24.96 96.7477 24.752C 96.6437 24.544 96.5037 24.368 96.3277 24.224C 96.1597 24.08 95.9637 23.968 95.7397 23.888C 95.5237 23.808 95.2997 23.768 95.0677 23.768ZM 103.987 23.048L 104.923 23.048L 104.923 29L 103.987 29L 103.987 27.92L 103.843 27.92C 103.651 28.304 103.399 28.608 103.087 28.832C 102.775 29.056 102.379 29.168 101.899 29.168C 101.571 29.168 101.267 29.112 100.987 29C 100.715 28.896 100.479 28.736 100.279 28.52C 100.087 28.304 99.9353 28.036 99.8233 27.716C 99.7193 27.396 99.6673 27.024 99.6673 26.6L 99.6673 23.048L 100.603 23.048L 100.603 26.48C 100.603 27.104 100.731 27.56 100.987 27.848C 101.243 28.136 101.635 28.28 102.163 28.28C 102.731 28.28 103.175 28.088 103.495 27.704C 103.823 27.312 103.987 26.792 103.987 26.144L 103.987 23.048ZM 112.811 29L 111.875 29L 111.875 24.728C 111.875 24.448 111.811 24.22 111.683 24.044C 111.555 23.86 111.351 23.768 111.071 23.768C 110.807 23.768 110.591 23.868 110.423 24.068C 110.263 24.26 110.183 24.56 110.183 24.968L 110.183 29L 109.247 29L 109.247 24.68C 109.247 24.416 109.175 24.2 109.031 24.032C 108.887 23.856 108.695 23.768 108.455 23.768C 108.167 23.768 107.943 23.872 107.783 24.08C 107.631 24.288 107.555 24.56 107.555 24.896L 107.555 29L 106.619 29L 106.619 23.048L 107.555 23.048L 107.555 23.696L 107.699 23.696C 107.803 23.416 107.955 23.212 108.155 23.084C 108.355 22.948 108.591 22.88 108.863 22.88C 109.151 22.88 109.387 22.956 109.571 23.108C 109.763 23.26 109.895 23.456 109.967 23.696L 110.111 23.696C 110.383 23.152 110.815 22.88 111.407 22.88C 111.855 22.88 112.199 23.024 112.439 23.312C 112.687 23.592 112.811 23.96 112.811 24.416L 112.811 29Z"/>
<path id="path9_fill" d="M 2.448 13L 0.936 13L 0.936 7.048L 2.448 7.048L 2.448 7.936L 2.664 7.936C 2.8 7.6 3.02 7.34 3.324 7.156C 3.628 6.972 3.984 6.88 4.392 6.88C 4.68 6.88 4.948 6.928 5.196 7.024C 5.452 7.112 5.676 7.252 5.868 7.444C 6.06 7.636 6.208 7.88 6.312 8.176C 6.424 8.472 6.48 8.824 6.48 9.232L 6.48 13L 4.968 13L 4.968 9.616C 4.968 9.192 4.864 8.86 4.656 8.62C 4.456 8.372 4.164 8.248 3.78 8.248C 3.332 8.248 2.996 8.4 2.772 8.704C 2.556 9 2.448 9.4 2.448 9.904L 2.448 13ZM 9.79566 13L 8.28366 13L 8.28366 7.048L 9.79566 7.048L 9.79566 7.936L 10.0117 7.936C 10.1477 7.6 10.3677 7.34 10.6717 7.156C 10.9757 6.972 11.3317 6.88 11.7397 6.88C 12.0277 6.88 12.2957 6.928 12.5437 7.024C 12.7997 7.112 13.0237 7.252 13.2157 7.444C 13.4077 7.636 13.5557 7.88 13.6597 8.176C 13.7717 8.472 13.8277 8.824 13.8277 9.232L 13.8277 13L 12.3157 13L 12.3157 9.616C 12.3157 9.192 12.2117 8.86 12.0037 8.62C 11.8037 8.372 11.5117 8.248 11.1277 8.248C 10.6797 8.248 10.3437 8.4 10.1197 8.704C 9.90366 9 9.79566 9.4 9.79566 9.904L 9.79566 13ZM 17.1433 13L 15.6313 13L 15.6313 7.048L 17.1433 7.048L 17.1433 7.936L 17.3593 7.936C 17.4953 7.6 17.7153 7.34 18.0193 7.156C 18.3233 6.972 18.6793 6.88 19.0873 6.88C 19.3753 6.88 19.6433 6.928 19.8913 7.024C 20.1473 7.112 20.3713 7.252 20.5633 7.444C 20.7553 7.636 20.9033 7.88 21.0073 8.176C 21.1193 8.472 21.1753 8.824 21.1753 9.232L 21.1753 13L 19.6633 13L 19.6633 9.616C 19.6633 9.192 19.5593 8.86 19.3513 8.62C 19.1513 8.372 18.8593 8.248 18.4753 8.248C 18.0273 8.248 17.6913 8.4 17.4673 8.704C 17.2513 9 17.1433 9.4 17.1433 9.904L 17.1433 13ZM 26.855 12.028C 26.855 12.188 26.823 12.34 26.759 12.484C 26.703 12.62 26.623 12.74 26.519 12.844C 26.415 12.94 26.291 13.016 26.147 13.072C 26.011 13.136 25.867 13.168 25.715 13.168C 25.555 13.168 25.407 13.136 25.271 13.072C 25.135 13.016 25.015 12.94 24.911 12.844C 24.807 12.74 24.723 12.62 24.659 12.484C 24.603 12.34 24.575 12.188 24.575 12.028C 24.575 11.868 24.603 11.72 24.659 11.584C 24.723 11.44 24.807 11.32 24.911 11.224C 25.015 11.12 25.135 11.04 25.271 10.984C 25.407 10.92 25.555 10.888 25.715 10.888C 25.867 10.888 26.011 10.92 26.147 10.984C 26.291 11.04 26.415 11.12 26.519 11.224C 26.623 11.32 26.703 11.44 26.759 11.584C 26.823 11.72 26.855 11.868 26.855 12.028ZM 30.2786 7.048L 31.9706 7.048L 31.9706 5.824C 31.9706 5.48 32.0866 5.192 32.3186 4.96C 32.5506 4.72 32.8386 4.6 33.1826 4.6L 35.6066 4.6L 35.6066 6.04L 33.8066 6.04C 33.5906 6.04 33.4826 6.16 33.4826 6.4L 33.4826 7.048L 35.8226 7.048L 35.8226 8.488L 33.4826 8.488L 33.4826 13L 31.9706 13L 31.9706 8.488L 30.2786 8.488L 30.2786 7.048ZM 37.3863 7.048L 39.9063 7.048L 39.9063 7.912L 40.1223 7.912C 40.2343 7.584 40.4223 7.332 40.6863 7.156C 40.9583 6.972 41.2823 6.88 41.6583 6.88C 42.2503 6.88 42.7263 7.068 43.0863 7.444C 43.4463 7.812 43.6263 8.376 43.6263 9.136L 43.6263 9.4L 42.0663 9.544L 42.0663 9.376C 42.0663 9.048 41.9823 8.788 41.8143 8.596C 41.6463 8.396 41.3943 8.296 41.0583 8.296C 40.7223 8.296 40.4583 8.412 40.2663 8.644C 40.0743 8.876 39.9783 9.208 39.9783 9.64L 39.9783 11.56L 41.3463 11.56L 41.3463 13L 37.2423 13L 37.2423 11.56L 38.4663 11.56L 38.4663 8.488L 37.3863 8.488L 37.3863 7.048ZM 46.3539 10.516C 46.3619 10.692 46.4019 10.856 46.4739 11.008C 46.5539 11.152 46.6579 11.28 46.7859 11.392C 46.9219 11.496 47.0739 11.58 47.2419 11.644C 47.4179 11.7 47.6019 11.728 47.7939 11.728C 48.1699 11.728 48.4579 11.664 48.6579 11.536C 48.8579 11.4 49.0019 11.24 49.0899 11.056L 50.3859 11.776C 50.3139 11.928 50.2139 12.088 50.0859 12.256C 49.9579 12.416 49.7899 12.564 49.5819 12.7C 49.3819 12.836 49.1339 12.948 48.8379 13.036C 48.5499 13.124 48.2099 13.168 47.8179 13.168C 47.3699 13.168 46.9619 13.096 46.5939 12.952C 46.2259 12.808 45.9059 12.6 45.6339 12.328C 45.3699 12.056 45.1619 11.724 45.0099 11.332C 44.8659 10.94 44.7939 10.496 44.7939 10L 44.7939 9.928C 44.7939 9.472 44.8699 9.056 45.0219 8.68C 45.1819 8.304 45.3979 7.984 45.6699 7.72C 45.9419 7.456 46.2579 7.252 46.6179 7.108C 46.9859 6.956 47.3779 6.88 47.7939 6.88C 48.3059 6.88 48.7459 6.972 49.1139 7.156C 49.4819 7.332 49.7859 7.56 50.0259 7.84C 50.2659 8.112 50.4419 8.416 50.5539 8.752C 50.6659 9.08 50.7219 9.4 50.7219 9.712L 50.7219 10.516L 46.3539 10.516ZM 47.7819 8.248C 47.3979 8.248 47.0859 8.348 46.8459 8.548C 46.6059 8.74 46.4499 8.964 46.3779 9.22L 49.1859 9.22C 49.1379 8.94 48.9859 8.708 48.7299 8.524C 48.4819 8.34 48.1659 8.248 47.7819 8.248ZM 53.7016 10.516C 53.7096 10.692 53.7496 10.856 53.8216 11.008C 53.9016 11.152 54.0056 11.28 54.1336 11.392C 54.2696 11.496 54.4216 11.58 54.5896 11.644C 54.7656 11.7 54.9496 11.728 55.1416 11.728C 55.5176 11.728 55.8056 11.664 56.0056 11.536C 56.2056 11.4 56.3496 11.24 56.4376 11.056L 57.7336 11.776C 57.6616 11.928 57.5616 12.088 57.4336 12.256C 57.3056 12.416 57.1376 12.564 56.9296 12.7C 56.7296 12.836 56.4816 12.948 56.1856 13.036C 55.8976 13.124 55.5576 13.168 55.1656 13.168C 54.7176 13.168 54.3096 13.096 53.9416 12.952C 53.5736 12.808 53.2536 12.6 52.9816 12.328C 52.7176 12.056 52.5096 11.724 52.3576 11.332C 52.2136 10.94 52.1416 10.496 52.1416 10L 52.1416 9.928C 52.1416 9.472 52.2176 9.056 52.3696 8.68C 52.5296 8.304 52.7456 7.984 53.0176 7.72C 53.2896 7.456 53.6056 7.252 53.9656 7.108C 54.3336 6.956 54.7256 6.88 55.1416 6.88C 55.6536 6.88 56.0936 6.972 56.4616 7.156C 56.8296 7.332 57.1336 7.56 57.3736 7.84C 57.6136 8.112 57.7896 8.416 57.9016 8.752C 58.0136 9.08 58.0696 9.4 58.0696 9.712L 58.0696 10.516L 53.7016 10.516ZM 55.1296 8.248C 54.7456 8.248 54.4336 8.348 54.1936 8.548C 53.9536 8.74 53.7976 8.964 53.7256 9.22L 56.5336 9.22C 56.4856 8.94 56.3336 8.708 56.0776 8.524C 55.8296 8.34 55.5136 8.248 55.1296 8.248ZM 60.9173 15.4L 59.4053 15.4L 59.4053 7.048L 60.9173 7.048L 60.9173 7.912L 61.1333 7.912C 61.2933 7.584 61.5252 7.332 61.8293 7.156C 62.1333 6.972 62.5213 6.88 62.9933 6.88C 63.3453 6.88 63.6773 6.948 63.9892 7.084C 64.3092 7.22 64.5853 7.42 64.8173 7.684C 65.0572 7.94 65.2452 8.256 65.3812 8.632C 65.5252 9.008 65.5973 9.436 65.5973 9.916L 65.5973 10.132C 65.5973 10.62 65.5292 11.052 65.3932 11.428C 65.2572 11.804 65.0733 12.124 64.8413 12.388C 64.6093 12.644 64.3332 12.84 64.0132 12.976C 63.7013 13.104 63.3613 13.168 62.9933 13.168C 62.7213 13.168 62.4853 13.14 62.2852 13.084C 62.0852 13.028 61.9093 12.952 61.7572 12.856C 61.6133 12.76 61.4892 12.652 61.3852 12.532C 61.2893 12.404 61.2053 12.272 61.1333 12.136L 60.9173 12.136L 60.9173 15.4ZM 62.5012 11.728C 62.9733 11.728 63.3533 11.584 63.6412 11.296C 63.9372 11 64.0853 10.6 64.0853 10.096L 64.0853 9.952C 64.0853 9.448 63.9372 9.052 63.6412 8.764C 63.3533 8.468 62.9733 8.32 62.5012 8.32C 62.0292 8.32 61.6452 8.472 61.3492 8.776C 61.0613 9.072 60.9173 9.464 60.9173 9.952L 60.9173 10.096C 60.9173 10.584 61.0613 10.98 61.3492 11.284C 61.6452 11.58 62.0292 11.728 62.5012 11.728ZM 72.8969 10.096C 72.8969 10.592 72.8129 11.032 72.6449 11.416C 72.4769 11.792 72.2489 12.112 71.9609 12.376C 71.6729 12.632 71.3409 12.828 70.9649 12.964C 70.5969 13.1 70.2089 13.168 69.8009 13.168C 69.3929 13.168 69.0009 13.1 68.6249 12.964C 68.2569 12.828 67.9289 12.632 67.6409 12.376C 67.3529 12.112 67.1249 11.792 66.9569 11.416C 66.7889 11.032 66.7049 10.592 66.7049 10.096L 66.7049 9.952C 66.7049 9.464 66.7889 9.032 66.9569 8.656C 67.1249 8.272 67.3529 7.948 67.6409 7.684C 67.9289 7.42 68.2569 7.22 68.6249 7.084C 69.0009 6.948 69.3929 6.88 69.8009 6.88C 70.2089 6.88 70.5969 6.948 70.9649 7.084C 71.3409 7.22 71.6729 7.42 71.9609 7.684C 72.2489 7.948 72.4769 8.272 72.6449 8.656C 72.8129 9.032 72.8969 9.464 72.8969 9.952L 72.8969 10.096ZM 69.8009 11.728C 70.0169 11.728 70.2209 11.692 70.4129 11.62C 70.6049 11.548 70.7729 11.444 70.9169 11.308C 71.0609 11.172 71.1729 11.008 71.2529 10.816C 71.3409 10.616 71.3849 10.392 71.3849 10.144L 71.3849 9.904C 71.3849 9.656 71.3409 9.436 71.2529 9.244C 71.1729 9.044 71.0609 8.876 70.9169 8.74C 70.7729 8.604 70.6049 8.5 70.4129 8.428C 70.2209 8.356 70.0169 8.32 69.8009 8.32C 69.5849 8.32 69.3809 8.356 69.1889 8.428C 68.9969 8.5 68.8289 8.604 68.6849 8.74C 68.5409 8.876 68.4249 9.044 68.3369 9.244C 68.2569 9.436 68.2169 9.656 68.2169 9.904L 68.2169 10.144C 68.2169 10.392 68.2569 10.616 68.3369 10.816C 68.4249 11.008 68.5409 11.172 68.6849 11.308C 68.8289 11.444 68.9969 11.548 69.1889 11.62C 69.3809 11.692 69.5849 11.728 69.8009 11.728ZM 74.1246 7.048L 76.6446 7.048L 76.6446 7.912L 76.8606 7.912C 76.9726 7.584 77.1606 7.332 77.4246 7.156C 77.6966 6.972 78.0206 6.88 78.3966 6.88C 78.9886 6.88 79.4646 7.068 79.8246 7.444C 80.1846 7.812 80.3646 8.376 80.3646 9.136L 80.3646 9.4L 78.8046 9.544L 78.8046 9.376C 78.8046 9.048 78.7206 8.788 78.5526 8.596C 78.3846 8.396 78.1326 8.296 77.7966 8.296C 77.4606 8.296 77.1966 8.412 77.0046 8.644C 76.8126 8.876 76.7166 9.208 76.7166 9.64L 76.7166 11.56L 78.0846 11.56L 78.0846 13L 73.9806 13L 73.9806 11.56L 75.2046 11.56L 75.2046 8.488L 74.1246 8.488L 74.1246 7.048ZM 81.5922 7.048L 83.3562 7.048L 83.3562 4.6L 84.8682 4.6L 84.8682 7.048L 87.0162 7.048L 87.0162 8.488L 84.8682 8.488L 84.8682 11.2C 84.8682 11.44 84.9762 11.56 85.1922 11.56L 86.8002 11.56L 86.8002 13L 84.2802 13C 84.0082 13 83.7842 12.912 83.6082 12.736C 83.4402 12.56 83.3562 12.336 83.3562 12.064L 83.3562 8.488L 81.5922 8.488L 81.5922 7.048ZM 92.9839 12.028C 92.9839 12.188 92.9519 12.34 92.8879 12.484C 92.8319 12.62 92.7519 12.74 92.6479 12.844C 92.5439 12.94 92.4199 13.016 92.2759 13.072C 92.1399 13.136 91.9959 13.168 91.8439 13.168C 91.6839 13.168 91.5359 13.136 91.3999 13.072C 91.2639 13.016 91.1439 12.94 91.0399 12.844C 90.9359 12.74 90.8519 12.62 90.7879 12.484C 90.7319 12.34 90.7039 12.188 90.7039 12.028C 90.7039 11.868 90.7319 11.72 90.7879 11.584C 90.8519 11.44 90.9359 11.32 91.0399 11.224C 91.1439 11.12 91.2639 11.04 91.3999 10.984C 91.5359 10.92 91.6839 10.888 91.8439 10.888C 91.9959 10.888 92.1399 10.92 92.2759 10.984C 92.4199 11.04 92.5439 11.12 92.6479 11.224C 92.7519 11.32 92.8319 11.44 92.8879 11.584C 92.9519 11.72 92.9839 11.868 92.9839 12.028ZM 100.704 12.136L 100.488 12.136C 100.424 12.272 100.344 12.404 100.248 12.532C 100.16 12.652 100.04 12.76 99.8875 12.856C 99.7435 12.952 99.5675 13.028 99.3595 13.084C 99.1595 13.14 98.9155 13.168 98.6275 13.168C 98.2595 13.168 97.9155 13.104 97.5955 12.976C 97.2835 12.84 97.0075 12.644 96.7675 12.388C 96.5355 12.124 96.3515 11.804 96.2155 11.428C 96.0875 11.052 96.0235 10.62 96.0235 10.132L 96.0235 9.916C 96.0235 9.436 96.0915 9.008 96.2275 8.632C 96.3715 8.256 96.5635 7.94 96.8035 7.684C 97.0515 7.42 97.3355 7.22 97.6555 7.084C 97.9835 6.948 98.3275 6.88 98.6875 6.88C 99.1675 6.88 99.5475 6.972 99.8275 7.156C 100.108 7.332 100.328 7.584 100.488 7.912L 100.704 7.912L 100.704 7.048L 102.216 7.048L 102.216 14.464C 102.216 14.736 102.128 14.96 101.952 15.136C 101.784 15.312 101.564 15.4 101.292 15.4L 97.2835 15.4L 97.2835 13.96L 100.38 13.96C 100.596 13.96 100.704 13.84 100.704 13.6L 100.704 12.136ZM 99.1195 11.728C 99.5915 11.728 99.9715 11.58 100.26 11.284C 100.556 10.98 100.704 10.584 100.704 10.096L 100.704 9.952C 100.704 9.464 100.556 9.072 100.26 8.776C 99.9715 8.472 99.5915 8.32 99.1195 8.32C 98.6475 8.32 98.2635 8.468 97.9675 8.764C 97.6795 9.052 97.5355 9.448 97.5355 9.952L 97.5355 10.096C 97.5355 10.6 97.6795 11 97.9675 11.296C 98.2635 11.584 98.6475 11.728 99.1195 11.728ZM 103.767 11.56L 105.855 11.56L 105.855 6.04L 103.839 6.04L 103.839 4.6L 107.367 4.6L 107.367 11.56L 109.311 11.56L 109.311 13L 103.767 13L 103.767 11.56ZM 116.983 10.096C 116.983 10.592 116.899 11.032 116.731 11.416C 116.563 11.792 116.335 12.112 116.047 12.376C 115.759 12.632 115.427 12.828 115.051 12.964C 114.683 13.1 114.295 13.168 113.887 13.168C 113.479 13.168 113.087 13.1 112.711 12.964C 112.343 12.828 112.015 12.632 111.727 12.376C 111.439 12.112 111.211 11.792 111.043 11.416C 110.875 11.032 110.791 10.592 110.791 10.096L 110.791 9.952C 110.791 9.464 110.875 9.032 111.043 8.656C 111.211 8.272 111.439 7.948 111.727 7.684C 112.015 7.42 112.343 7.22 112.711 7.084C 113.087 6.948 113.479 6.88 113.887 6.88C 114.295 6.88 114.683 6.948 115.051 7.084C 115.427 7.22 115.759 7.42 116.047 7.684C 116.335 7.948 116.563 8.272 116.731 8.656C 116.899 9.032 116.983 9.464 116.983 9.952L 116.983 10.096ZM 113.887 11.728C 114.103 11.728 114.307 11.692 114.499 11.62C 114.691 11.548 114.859 11.444 115.003 11.308C 115.147 11.172 115.259 11.008 115.339 10.816C 115.427 10.616 115.471 10.392 115.471 10.144L 115.471 9.904C 115.471 9.656 115.427 9.436 115.339 9.244C 115.259 9.044 115.147 8.876 115.003 8.74C 114.859 8.604 114.691 8.5 114.499 8.428C 114.307 8.356 114.103 8.32 113.887 8.32C 113.671 8.32 113.467 8.356 113.275 8.428C 113.083 8.5 112.915 8.604 112.771 8.74C 112.627 8.876 112.511 9.044 112.423 9.244C 112.343 9.436 112.303 9.656 112.303 9.904L 112.303 10.144C 112.303 10.392 112.343 10.616 112.423 10.816C 112.511 11.008 112.627 11.172 112.771 11.308C 112.915 11.444 113.083 11.548 113.275 11.62C 113.467 11.692 113.671 11.728 113.887 11.728ZM 119.758 13L 118.246 13L 118.246 4.6L 119.758 4.6L 119.758 7.912L 119.975 7.912C 120.135 7.584 120.367 7.332 120.671 7.156C 120.975 6.972 121.363 6.88 121.835 6.88C 122.187 6.88 122.519 6.948 122.831 7.084C 123.15 7.22 123.427 7.42 123.659 7.684C 123.898 7.94 124.087 8.256 124.222 8.632C 124.367 9.008 124.439 9.436 124.439 9.916L 124.439 10.132C 124.439 10.62 124.37 11.052 124.234 11.428C 124.099 11.804 123.915 12.124 123.683 12.388C 123.451 12.644 123.174 12.84 122.855 12.976C 122.543 13.104 122.203 13.168 121.835 13.168C 121.562 13.168 121.326 13.14 121.126 13.084C 120.926 13.028 120.751 12.952 120.599 12.856C 120.454 12.76 120.331 12.652 120.227 12.532C 120.13 12.404 120.047 12.272 119.975 12.136L 119.758 12.136L 119.758 13ZM 121.343 11.728C 121.814 11.728 122.195 11.584 122.483 11.296C 122.779 11 122.927 10.6 122.927 10.096L 122.927 9.952C 122.927 9.448 122.779 9.052 122.483 8.764C 122.195 8.468 121.814 8.32 121.343 8.32C 120.871 8.32 120.487 8.472 120.191 8.776C 119.903 9.072 119.758 9.464 119.758 9.952L 119.758 10.096C 119.758 10.584 119.903 10.98 120.191 11.284C 120.487 11.58 120.871 11.728 121.343 11.728ZM 129.698 12.136C 129.538 12.512 129.314 12.78 129.026 12.94C 128.738 13.092 128.402 13.168 128.018 13.168C 127.658 13.168 127.318 13.1 126.998 12.964C 126.686 12.828 126.41 12.628 126.17 12.364C 125.93 12.1 125.738 11.78 125.594 11.404C 125.458 11.028 125.39 10.6 125.39 10.12L 125.39 9.928C 125.39 9.456 125.458 9.032 125.594 8.656C 125.73 8.28 125.914 7.96 126.146 7.696C 126.378 7.432 126.646 7.232 126.95 7.096C 127.262 6.952 127.594 6.88 127.946 6.88C 128.37 6.88 128.71 6.952 128.966 7.096C 129.23 7.24 129.438 7.464 129.59 7.768L 129.806 7.768L 129.806 7.048L 131.318 7.048L 131.318 11.2C 131.318 11.44 131.426 11.56 131.642 11.56L 131.87 11.56L 131.87 13L 130.838 13C 130.566 13 130.342 12.92 130.166 12.76C 129.998 12.6 129.914 12.392 129.914 12.136L 129.698 12.136ZM 128.354 11.728C 128.794 11.728 129.146 11.584 129.41 11.296C 129.674 11 129.806 10.6 129.806 10.096L 129.806 9.952C 129.806 9.448 129.674 9.052 129.41 8.764C 129.146 8.468 128.794 8.32 128.354 8.32C 127.914 8.32 127.562 8.468 127.298 8.764C 127.034 9.052 126.902 9.448 126.902 9.952L 126.902 10.096C 126.902 10.6 127.034 11 127.298 11.296C 127.562 11.584 127.914 11.728 128.354 11.728ZM 133.158 11.56L 135.246 11.56L 135.246 6.04L 133.23 6.04L 133.23 4.6L 136.758 4.6L 136.758 11.56L 138.702 11.56L 138.702 13L 133.158 13L 133.158 11.56Z"/>
<path id="path10_fill" d="M 6.552 13.984L 6.552 14.872L 6.12 14.872C 5.56 14.872 5.024 14.768 4.512 14.56C 4 14.352 3.548 14.048 3.156 13.648C 2.764 13.256 2.452 12.78 2.22 12.22C 1.988 11.66 1.872 11.024 1.872 10.312L 1.872 7.288C 1.872 6.584 1.988 5.952 2.22 5.392C 2.452 4.824 2.764 4.344 3.156 3.952C 3.548 3.552 4 3.248 4.512 3.04C 5.024 2.832 5.56 2.728 6.12 2.728L 6.552 2.728L 6.552 3.616L 6.12 3.616C 5.688 3.616 5.272 3.704 4.872 3.88C 4.472 4.048 4.12 4.292 3.816 4.612C 3.512 4.932 3.268 5.324 3.084 5.788C 2.9 6.244 2.808 6.76 2.808 7.336L 2.808 10.264C 2.808 10.84 2.9 11.36 3.084 11.824C 3.268 12.28 3.512 12.668 3.816 12.988C 4.12 13.308 4.472 13.552 4.872 13.72C 5.272 13.896 5.688 13.984 6.12 13.984L 6.552 13.984ZM 8.03166 12.064L 8.75166 12.064L 8.75166 5.536L 8.03166 5.536L 8.03166 4.6L 11.4277 4.6C 11.8277 4.6 12.1797 4.656 12.4837 4.768C 12.7957 4.88 13.0557 5.032 13.2637 5.224C 13.4797 5.416 13.6397 5.648 13.7437 5.92C 13.8557 6.184 13.9117 6.472 13.9117 6.784L 13.9117 6.928C 13.9117 7.16 13.8757 7.372 13.8037 7.564C 13.7317 7.756 13.6317 7.928 13.5037 8.08C 13.3757 8.232 13.2237 8.364 13.0477 8.476C 12.8797 8.58 12.6957 8.66 12.4957 8.716L 12.4957 8.86C 12.8957 8.972 13.2317 9.188 13.5037 9.508C 13.7757 9.82 13.9117 10.204 13.9117 10.66L 13.9117 10.804C 13.9117 11.116 13.8557 11.408 13.7437 11.68C 13.6397 11.944 13.4797 12.176 13.2637 12.376C 13.0557 12.568 12.7957 12.72 12.4837 12.832C 12.1797 12.944 11.8277 13 11.4277 13L 8.03166 13L 8.03166 12.064ZM 9.75966 12.064L 11.3557 12.064C 11.8277 12.064 12.2117 11.948 12.5077 11.716C 12.8037 11.476 12.9517 11.148 12.9517 10.732L 12.9517 10.66C 12.9517 10.228 12.8117 9.888 12.5317 9.64C 12.2517 9.384 11.8717 9.256 11.3917 9.256L 9.75966 9.256L 9.75966 12.064ZM 9.75966 8.32L 11.3917 8.32C 11.8717 8.32 12.2517 8.196 12.5317 7.948C 12.8117 7.7 12.9517 7.36 12.9517 6.928L 12.9517 6.856C 12.9517 6.448 12.8037 6.128 12.5077 5.896C 12.2117 5.656 11.8277 5.536 11.3557 5.536L 9.75966 5.536L 9.75966 8.32ZM 20.0593 11.992L 19.9153 11.992C 19.7233 12.392 19.4553 12.688 19.1113 12.88C 18.7753 13.072 18.4193 13.168 18.0433 13.168C 17.6513 13.168 17.2873 13.104 16.9513 12.976C 16.6153 12.84 16.3193 12.644 16.0633 12.388C 15.8153 12.124 15.6193 11.804 15.4753 11.428C 15.3313 11.052 15.2593 10.616 15.2593 10.12L 15.2593 9.928C 15.2593 9.44 15.3313 9.008 15.4753 8.632C 15.6193 8.256 15.8153 7.94 16.0633 7.684C 16.3193 7.42 16.6153 7.22 16.9513 7.084C 17.2873 6.948 17.6433 6.88 18.0193 6.88C 18.4273 6.88 18.7953 6.972 19.1233 7.156C 19.4593 7.332 19.7233 7.608 19.9153 7.984L 20.0593 7.984L 20.0593 7.048L 20.9953 7.048L 20.9953 11.776C 20.9953 12.016 21.1033 12.136 21.3193 12.136L 21.6193 12.136L 21.6193 13L 20.9833 13C 20.7113 13 20.4873 12.912 20.3113 12.736C 20.1433 12.56 20.0593 12.336 20.0593 12.064L 20.0593 11.992ZM 18.1393 12.28C 18.4193 12.28 18.6753 12.228 18.9073 12.124C 19.1473 12.02 19.3513 11.872 19.5193 11.68C 19.6873 11.488 19.8193 11.26 19.9153 10.996C 20.0113 10.724 20.0593 10.424 20.0593 10.096L 20.0593 9.952C 20.0593 9.632 20.0113 9.34 19.9153 9.076C 19.8193 8.804 19.6833 8.572 19.5073 8.38C 19.3393 8.188 19.1353 8.04 18.8953 7.936C 18.6633 7.824 18.4113 7.768 18.1393 7.768C 17.8593 7.768 17.6033 7.82 17.3713 7.924C 17.1393 8.028 16.9353 8.176 16.7593 8.368C 16.5913 8.552 16.4593 8.78 16.3633 9.052C 16.2673 9.316 16.2193 9.608 16.2193 9.928L 16.2193 10.12C 16.2193 10.8 16.3953 11.332 16.7473 11.716C 17.1073 12.092 17.5713 12.28 18.1393 12.28ZM 28.655 10.888C 28.591 11.216 28.479 11.52 28.319 11.8C 28.167 12.08 27.971 12.324 27.731 12.532C 27.491 12.732 27.211 12.888 26.891 13C 26.571 13.112 26.215 13.168 25.823 13.168C 25.407 13.168 25.011 13.1 24.635 12.964C 24.267 12.828 23.943 12.632 23.663 12.376C 23.383 12.112 23.159 11.792 22.991 11.416C 22.831 11.04 22.751 10.608 22.751 10.12L 22.751 9.976C 22.751 9.496 22.831 9.064 22.991 8.68C 23.159 8.296 23.383 7.972 23.663 7.708C 23.943 7.444 24.267 7.24 24.635 7.096C 25.011 6.952 25.407 6.88 25.823 6.88C 26.199 6.88 26.547 6.936 26.867 7.048C 27.187 7.16 27.467 7.32 27.707 7.528C 27.955 7.728 28.155 7.968 28.307 8.248C 28.467 8.528 28.575 8.832 28.631 9.16L 27.695 9.376C 27.671 9.168 27.611 8.968 27.515 8.776C 27.427 8.576 27.303 8.404 27.143 8.26C 26.991 8.108 26.803 7.988 26.579 7.9C 26.355 7.812 26.095 7.768 25.799 7.768C 25.511 7.768 25.239 7.824 24.983 7.936C 24.735 8.04 24.515 8.192 24.323 8.392C 24.131 8.584 23.979 8.816 23.867 9.088C 23.763 9.36 23.711 9.656 23.711 9.976L 23.711 10.12C 23.711 10.456 23.763 10.76 23.867 11.032C 23.979 11.296 24.131 11.52 24.323 11.704C 24.515 11.888 24.739 12.032 24.995 12.136C 25.251 12.232 25.527 12.28 25.823 12.28C 26.119 12.28 26.375 12.236 26.591 12.148C 26.815 12.052 27.003 11.932 27.155 11.788C 27.315 11.636 27.439 11.464 27.527 11.272C 27.623 11.08 27.687 10.88 27.719 10.672L 28.655 10.888ZM 31.9706 9.52L 32.1746 9.52L 34.4426 7.048L 35.5946 7.048L 35.5946 7.12L 33.1226 9.844L 33.1226 10.06L 35.8826 12.928L 35.8826 13L 34.7306 13L 32.1986 10.384L 31.9706 10.384L 31.9706 13L 31.0346 13L 31.0346 4.6L 31.9706 4.6L 31.9706 9.52ZM 38.4663 10.312C 38.4903 10.904 38.6743 11.38 39.0183 11.74C 39.3623 12.1 39.8423 12.28 40.4583 12.28C 40.7383 12.28 40.9823 12.248 41.1903 12.184C 41.3983 12.12 41.5743 12.032 41.7183 11.92C 41.8703 11.808 41.9903 11.68 42.0783 11.536C 42.1743 11.384 42.2503 11.224 42.3063 11.056L 43.1943 11.296C 43.0263 11.848 42.7143 12.3 42.2583 12.652C 41.8103 12.996 41.2023 13.168 40.4343 13.168C 40.0103 13.168 39.6183 13.096 39.2583 12.952C 38.9063 12.8 38.6023 12.588 38.3463 12.316C 38.0903 12.044 37.8903 11.72 37.7463 11.344C 37.6023 10.968 37.5303 10.552 37.5303 10.096L 37.5303 9.808C 37.5303 9.392 37.6023 9.004 37.7463 8.644C 37.8983 8.284 38.1063 7.976 38.3703 7.72C 38.6343 7.456 38.9423 7.252 39.2943 7.108C 39.6543 6.956 40.0423 6.88 40.4583 6.88C 40.9463 6.88 41.3663 6.972 41.7183 7.156C 42.0783 7.332 42.3703 7.552 42.5943 7.816C 42.8263 8.08 42.9943 8.368 43.0983 8.68C 43.2103 8.992 43.2663 9.28 43.2663 9.544L 43.2663 10.312L 38.4663 10.312ZM 40.4583 7.768C 40.1943 7.768 39.9463 7.812 39.7143 7.9C 39.4903 7.98 39.2903 8.096 39.1143 8.248C 38.9463 8.4 38.8063 8.58 38.6943 8.788C 38.5903 8.988 38.5223 9.208 38.4903 9.448L 42.3303 9.448C 42.3143 9.192 42.2503 8.96 42.1383 8.752C 42.0343 8.544 41.8943 8.368 41.7183 8.224C 41.5503 8.08 41.3543 7.968 41.1303 7.888C 40.9143 7.808 40.6903 7.768 40.4583 7.768ZM 46.0659 13L 45.1299 13L 45.1299 7.048L 46.0659 7.048L 46.0659 8.056L 46.2099 8.056C 46.5779 7.272 47.2179 6.88 48.1299 6.88C 48.8179 6.88 49.3659 7.096 49.7739 7.528C 50.1819 7.952 50.3859 8.592 50.3859 9.448L 50.3859 13L 49.4499 13L 49.4499 9.64C 49.4499 9.016 49.3099 8.548 49.0299 8.236C 48.7499 7.924 48.3699 7.768 47.8899 7.768C 47.3219 7.768 46.8739 7.964 46.5459 8.356C 46.2259 8.74 46.0659 9.256 46.0659 9.904L 46.0659 13ZM 57.0856 12.088L 56.9416 12.088C 56.8456 12.272 56.7216 12.432 56.5696 12.568C 56.4256 12.704 56.2656 12.816 56.0896 12.904C 55.9216 12.992 55.7416 13.056 55.5496 13.096C 55.3576 13.144 55.1736 13.168 54.9976 13.168C 54.5976 13.168 54.2256 13.1 53.8816 12.964C 53.5376 12.828 53.2336 12.632 52.9696 12.376C 52.7136 12.12 52.5096 11.804 52.3576 11.428C 52.2136 11.044 52.1416 10.608 52.1416 10.12L 52.1416 9.928C 52.1416 9.448 52.2176 9.02 52.3696 8.644C 52.5216 8.26 52.7256 7.94 52.9816 7.684C 53.2376 7.42 53.5376 7.22 53.8816 7.084C 54.2256 6.948 54.5896 6.88 54.9736 6.88C 55.3816 6.88 55.7616 6.972 56.1136 7.156C 56.4736 7.332 56.7496 7.608 56.9416 7.984L 57.0856 7.984L 57.0856 4.6L 58.0216 4.6L 58.0216 13L 57.0856 13L 57.0856 12.088ZM 55.0936 12.28C 55.3736 12.28 55.6336 12.228 55.8736 12.124C 56.1136 12.02 56.3216 11.872 56.4976 11.68C 56.6816 11.488 56.8256 11.26 56.9296 10.996C 57.0336 10.724 57.0856 10.424 57.0856 10.096L 57.0856 9.952C 57.0856 9.632 57.0336 9.34 56.9296 9.076C 56.8256 8.804 56.6816 8.572 56.4976 8.38C 56.3216 8.188 56.1096 8.04 55.8616 7.936C 55.6216 7.824 55.3656 7.768 55.0936 7.768C 54.8136 7.768 54.5496 7.82 54.3016 7.924C 54.0616 8.028 53.8496 8.176 53.6656 8.368C 53.4896 8.56 53.3496 8.788 53.2456 9.052C 53.1496 9.316 53.1016 9.608 53.1016 9.928L 53.1016 10.12C 53.1016 10.456 53.1496 10.756 53.2456 11.02C 53.3496 11.284 53.4896 11.512 53.6656 11.704C 53.8496 11.888 54.0616 12.032 54.3016 12.136C 54.5416 12.232 54.8056 12.28 55.0936 12.28ZM 60.0053 13.984C 60.4373 13.984 60.8533 13.896 61.2533 13.72C 61.6532 13.552 62.0052 13.308 62.3092 12.988C 62.6133 12.668 62.8573 12.28 63.0412 11.824C 63.2252 11.36 63.3173 10.84 63.3173 10.264L 63.3173 7.336C 63.3173 6.76 63.2252 6.244 63.0412 5.788C 62.8573 5.324 62.6133 4.932 62.3092 4.612C 62.0052 4.292 61.6532 4.048 61.2533 3.88C 60.8533 3.704 60.4373 3.616 60.0053 3.616L 59.5733 3.616L 59.5733 2.728L 60.0053 2.728C 60.5653 2.728 61.1013 2.832 61.6133 3.04C 62.1253 3.248 62.5772 3.552 62.9693 3.952C 63.3613 4.344 63.6733 4.824 63.9053 5.392C 64.1373 5.952 64.2532 6.584 64.2532 7.288L 64.2532 10.312C 64.2532 11.024 64.1373 11.66 63.9053 12.22C 63.6733 12.78 63.3613 13.256 62.9693 13.648C 62.5772 14.048 62.1253 14.352 61.6133 14.56C 61.1013 14.768 60.5653 14.872 60.0053 14.872L 59.5733 14.872L 59.5733 13.984L 60.0053 13.984Z"/>
<path id="path11_fill" d="M 6.552 13.984L 6.552 14.872L 6.12 14.872C 5.56 14.872 5.024 14.768 4.512 14.56C 4 14.352 3.548 14.048 3.156 13.648C 2.764 13.256 2.452 12.78 2.22 12.22C 1.988 11.66 1.872 11.024 1.872 10.312L 1.872 7.288C 1.872 6.584 1.988 5.952 2.22 5.392C 2.452 4.824 2.764 4.344 3.156 3.952C 3.548 3.552 4 3.248 4.512 3.04C 5.024 2.832 5.56 2.728 6.12 2.728L 6.552 2.728L 6.552 3.616L 6.12 3.616C 5.688 3.616 5.272 3.704 4.872 3.88C 4.472 4.048 4.12 4.292 3.816 4.612C 3.512 4.932 3.268 5.324 3.084 5.788C 2.9 6.244 2.808 6.76 2.808 7.336L 2.808 10.264C 2.808 10.84 2.9 11.36 3.084 11.824C 3.268 12.28 3.512 12.668 3.816 12.988C 4.12 13.308 4.472 13.552 4.872 13.72C 5.272 13.896 5.688 13.984 6.12 13.984L 6.552 13.984ZM 8.48766 4.6L 13.6477 4.6L 13.6477 5.536L 9.49566 5.536L 9.49566 8.32L 13.5757 8.32L 13.5757 9.256L 9.49566 9.256L 9.49566 13L 8.48766 13L 8.48766 4.6ZM 15.4033 7.048L 17.5633 7.048L 17.5633 7.84L 17.7073 7.84C 17.8593 7.512 18.0753 7.272 18.3553 7.12C 18.6353 6.96 18.9553 6.88 19.3153 6.88C 19.9153 6.88 20.3993 7.076 20.7673 7.468C 21.1353 7.86 21.3313 8.432 21.3553 9.184L 20.3713 9.328C 20.3713 8.776 20.2393 8.38 19.9753 8.14C 19.7113 7.892 19.3873 7.768 19.0033 7.768C 18.7553 7.768 18.5393 7.816 18.3553 7.912C 18.1793 8.008 18.0313 8.14 17.9113 8.308C 17.7913 8.476 17.7033 8.672 17.6473 8.896C 17.5913 9.12 17.5633 9.36 17.5633 9.616L 17.5633 12.136L 19.0753 12.136L 19.0753 13L 15.2593 13L 15.2593 12.136L 16.6273 12.136L 16.6273 7.912L 15.4033 7.912L 15.4033 7.048ZM 28.703 10.096C 28.703 10.592 28.619 11.032 28.451 11.416C 28.291 11.792 28.075 12.112 27.803 12.376C 27.531 12.632 27.211 12.828 26.843 12.964C 26.483 13.1 26.107 13.168 25.715 13.168C 25.315 13.168 24.935 13.1 24.575 12.964C 24.215 12.828 23.899 12.632 23.627 12.376C 23.355 12.112 23.135 11.792 22.967 11.416C 22.807 11.032 22.727 10.592 22.727 10.096L 22.727 9.952C 22.727 9.464 22.807 9.032 22.967 8.656C 23.135 8.272 23.355 7.948 23.627 7.684C 23.907 7.42 24.227 7.22 24.587 7.084C 24.947 6.948 25.323 6.88 25.715 6.88C 26.107 6.88 26.483 6.948 26.843 7.084C 27.203 7.22 27.519 7.42 27.791 7.684C 28.071 7.948 28.291 8.272 28.451 8.656C 28.619 9.032 28.703 9.464 28.703 9.952L 28.703 10.096ZM 25.715 12.28C 26.003 12.28 26.267 12.232 26.507 12.136C 26.755 12.032 26.971 11.884 27.155 11.692C 27.339 11.5 27.483 11.272 27.587 11.008C 27.691 10.736 27.743 10.432 27.743 10.096L 27.743 9.952C 27.743 9.632 27.691 9.34 27.587 9.076C 27.483 8.804 27.339 8.572 27.155 8.38C 26.971 8.188 26.755 8.04 26.507 7.936C 26.259 7.824 25.995 7.768 25.715 7.768C 25.435 7.768 25.171 7.824 24.923 7.936C 24.675 8.04 24.459 8.188 24.275 8.38C 24.091 8.572 23.947 8.804 23.843 9.076C 23.739 9.34 23.687 9.632 23.687 9.952L 23.687 10.096C 23.687 10.432 23.739 10.736 23.843 11.008C 23.947 11.272 24.091 11.5 24.275 11.692C 24.459 11.884 24.671 12.032 24.911 12.136C 25.159 12.232 25.427 12.28 25.715 12.28ZM 31.3706 13L 30.4346 13L 30.4346 7.048L 31.3706 7.048L 31.3706 8.056L 31.5146 8.056C 31.8826 7.272 32.5226 6.88 33.4346 6.88C 34.1226 6.88 34.6706 7.096 35.0786 7.528C 35.4866 7.952 35.6906 8.592 35.6906 9.448L 35.6906 13L 34.7546 13L 34.7546 9.64C 34.7546 9.016 34.6146 8.548 34.3346 8.236C 34.0546 7.924 33.6746 7.768 33.1946 7.768C 32.6266 7.768 32.1786 7.964 31.8506 8.356C 31.5306 8.74 31.3706 9.256 31.3706 9.904L 31.3706 13ZM 37.5783 7.048L 39.4503 7.048L 39.4503 4.6L 40.3863 4.6L 40.3863 7.048L 42.6903 7.048L 42.6903 7.912L 40.3863 7.912L 40.3863 11.776C 40.3863 12.016 40.4943 12.136 40.7103 12.136L 42.4023 12.136L 42.4023 13L 40.3743 13C 40.1023 13 39.8783 12.912 39.7023 12.736C 39.5343 12.56 39.4503 12.336 39.4503 12.064L 39.4503 7.912L 37.5783 7.912L 37.5783 7.048ZM 45.8139 10.312C 45.8379 10.904 46.0219 11.38 46.3659 11.74C 46.7099 12.1 47.1899 12.28 47.8059 12.28C 48.0859 12.28 48.3299 12.248 48.5379 12.184C 48.7459 12.12 48.9219 12.032 49.0659 11.92C 49.2179 11.808 49.3379 11.68 49.4259 11.536C 49.5219 11.384 49.5979 11.224 49.6539 11.056L 50.5419 11.296C 50.3739 11.848 50.0619 12.3 49.6059 12.652C 49.1579 12.996 48.5499 13.168 47.7819 13.168C 47.3579 13.168 46.9659 13.096 46.6059 12.952C 46.2539 12.8 45.9499 12.588 45.6939 12.316C 45.4379 12.044 45.2379 11.72 45.0939 11.344C 44.9499 10.968 44.8779 10.552 44.8779 10.096L 44.8779 9.808C 44.8779 9.392 44.9499 9.004 45.0939 8.644C 45.2459 8.284 45.4539 7.976 45.7179 7.72C 45.9819 7.456 46.2899 7.252 46.6419 7.108C 47.0019 6.956 47.3899 6.88 47.8059 6.88C 48.2939 6.88 48.7139 6.972 49.0659 7.156C 49.4259 7.332 49.7179 7.552 49.9419 7.816C 50.1739 8.08 50.3419 8.368 50.4459 8.68C 50.5579 8.992 50.6139 9.28 50.6139 9.544L 50.6139 10.312L 45.8139 10.312ZM 47.8059 7.768C 47.5419 7.768 47.2939 7.812 47.0619 7.9C 46.8379 7.98 46.6379 8.096 46.4619 8.248C 46.2939 8.4 46.1539 8.58 46.0419 8.788C 45.9379 8.988 45.8699 9.208 45.8379 9.448L 49.6779 9.448C 49.6619 9.192 49.5979 8.96 49.4859 8.752C 49.3819 8.544 49.2419 8.368 49.0659 8.224C 48.8979 8.08 48.7019 7.968 48.4779 7.888C 48.2619 7.808 48.0379 7.768 47.8059 7.768ZM 53.4136 13L 52.4776 13L 52.4776 7.048L 53.4136 7.048L 53.4136 8.056L 53.5576 8.056C 53.9256 7.272 54.5656 6.88 55.4776 6.88C 56.1656 6.88 56.7136 7.096 57.1216 7.528C 57.5296 7.952 57.7336 8.592 57.7336 9.448L 57.7336 13L 56.7976 13L 56.7976 9.64C 56.7976 9.016 56.6576 8.548 56.3776 8.236C 56.0976 7.924 55.7176 7.768 55.2376 7.768C 54.6696 7.768 54.2216 7.964 53.8936 8.356C 53.5736 8.74 53.4136 9.256 53.4136 9.904L 53.4136 13ZM 64.4333 12.088L 64.2892 12.088C 64.1932 12.272 64.0692 12.432 63.9173 12.568C 63.7733 12.704 63.6133 12.816 63.4372 12.904C 63.2692 12.992 63.0892 13.056 62.8972 13.096C 62.7052 13.144 62.5213 13.168 62.3453 13.168C 61.9453 13.168 61.5733 13.1 61.2293 12.964C 60.8852 12.828 60.5813 12.632 60.3173 12.376C 60.0613 12.12 59.8573 11.804 59.7052 11.428C 59.5613 11.044 59.4892 10.608 59.4892 10.12L 59.4892 9.928C 59.4892 9.448 59.5652 9.02 59.7172 8.644C 59.8693 8.26 60.0733 7.94 60.3293 7.684C 60.5853 7.42 60.8852 7.22 61.2293 7.084C 61.5733 6.948 61.9372 6.88 62.3212 6.88C 62.7293 6.88 63.1093 6.972 63.4612 7.156C 63.8212 7.332 64.0973 7.608 64.2892 7.984L 64.4333 7.984L 64.4333 4.6L 65.3692 4.6L 65.3692 13L 64.4333 13L 64.4333 12.088ZM 62.4412 12.28C 62.7212 12.28 62.9812 12.228 63.2212 12.124C 63.4612 12.02 63.6692 11.872 63.8453 11.68C 64.0293 11.488 64.1732 11.26 64.2772 10.996C 64.3812 10.724 64.4333 10.424 64.4333 10.096L 64.4333 9.952C 64.4333 9.632 64.3812 9.34 64.2772 9.076C 64.1732 8.804 64.0293 8.572 63.8453 8.38C 63.6692 8.188 63.4572 8.04 63.2092 7.936C 62.9692 7.824 62.7132 7.768 62.4412 7.768C 62.1612 7.768 61.8972 7.82 61.6493 7.924C 61.4093 8.028 61.1972 8.176 61.0132 8.368C 60.8372 8.56 60.6972 8.788 60.5932 9.052C 60.4973 9.316 60.4492 9.608 60.4492 9.928L 60.4492 10.12C 60.4492 10.456 60.4973 10.756 60.5932 11.02C 60.6972 11.284 60.8372 11.512 61.0132 11.704C 61.1972 11.888 61.4093 12.032 61.6493 12.136C 61.8893 12.232 62.1532 12.28 62.4412 12.28ZM 67.3529 13.984C 67.7849 13.984 68.2009 13.896 68.6009 13.72C 69.0009 13.552 69.3529 13.308 69.6569 12.988C 69.9609 12.668 70.2049 12.28 70.3889 11.824C 70.5729 11.36 70.6649 10.84 70.6649 10.264L 70.6649 7.336C 70.6649 6.76 70.5729 6.244 70.3889 5.788C 70.2049 5.324 69.9609 4.932 69.6569 4.612C 69.3529 4.292 69.0009 4.048 68.6009 3.88C 68.2009 3.704 67.7849 3.616 67.3529 3.616L 66.9209 3.616L 66.9209 2.728L 67.3529 2.728C 67.9129 2.728 68.4489 2.832 68.9609 3.04C 69.4729 3.248 69.9249 3.552 70.3169 3.952C 70.7089 4.344 71.0209 4.824 71.2529 5.392C 71.4849 5.952 71.6009 6.584 71.6009 7.288L 71.6009 10.312C 71.6009 11.024 71.4849 11.66 71.2529 12.22C 71.0209 12.78 70.7089 13.256 70.3169 13.648C 69.9249 14.048 69.4729 14.352 68.9609 14.56C 68.4489 14.768 67.9129 14.872 67.3529 14.872L 66.9209 14.872L 66.9209 13.984L 67.3529 13.984Z"/>
<path id="path12_stroke" d="M 19.7071 0.707107C 20.0976 0.316582 20.0976 -0.316582 19.7071 -0.707107L 13.3431 -7.07107C 12.9526 -7.46159 12.3195 -7.46159 11.9289 -7.07107C 11.5384 -6.68054 11.5384 -6.04738 11.9289 -5.65685L 17.5858 0L 11.9289 5.65685C 11.5384 6.04738 11.5384 6.68054 11.9289 7.07107C 12.3195 7.46159 12.9526 7.46159 13.3431 7.07107L 19.7071 0.707107ZM 0 1L 19 1L 19 -1L 0 -1L 0 1Z"/>
</defs>
</svg>
