<svg width="388" height="339" viewBox="0 0 388 339" version="1.1" xmlns="http://www.w3.org/2000/svg" xmlns:xlink="http://www.w3.org/1999/xlink">
<title>Frame</title>
<desc>Created using Figma</desc>
<g id="Canvas" transform="translate(-795 -263)">
<clipPath id="clip-0" clip-rule="evenodd">
<path d="M 795 263L 1183 263L 1183 602L 795 602L 795 263Z" fill="#FFFFFF"/>
</clipPath>
<g id="Frame" clip-path="url(#clip-0)">
<g id="Group 2.4">
<g id="Rectangle">
<mask id="mask0_outline_ins">
<use xlink:href="#path0_fill" fill="white" transform="translate(855 377)"/>
</mask>
<g mask="url(#mask0_outline_ins)">
<use xlink:href="#path1_stroke_2x" transform="translate(855 377)" fill="#FCFF41"/>
</g>
</g>
</g>
<g id="0110011101001101010111010111000110101011111101000101...">
<use xlink:href="#path2_fill" transform="translate(863 384)" fill="#FFFFFF"/>
</g>
<g id="Qma7LKkVo...">
<use xlink:href="#path3_fill" transform="translate(1033 452)" fill="#FFFFFF"/>
</g>
<g id="ic_fingerprint_black_24px">
<g id="Vector">
<use xlink:href="#path4_fill" transform="translate(1044.99 398.667)" fill="#FCFF41"/>
</g>
</g>
<g id="Arrow">
<use xlink:href="#path5_stroke" transform="translate(970 431)" fill="#FCFF41"/>
</g>
</g>
</g>
<defs>
<path id="path0_fill" d="M 0 0L 99 0L 99 111L 0 111L 0 0Z"/>
<path id="path1_stroke_2x" d="M 0 0L 0 -3L -3 -3L -3 0L 0 0ZM 99 0L 102 0L 102 -3L 99 -3L 99 0ZM 99 111L 99 114L 102 114L 102 111L 99 111ZM 0 111L -3 111L -3 114L 0 114L 0 111ZM 0 3L 99 3L 99 -3L 0 -3L 0 3ZM 96 0L 96 111L 102 111L 102 0L 96 0ZM 99 108L 0 108L 0 114L 99 114L 99 108ZM 3 111L 3 0L -3 0L -3 111L 3 111Z"/>
<path id="path2_fill" d="M 0.807891 12.864C 0.807891 11.776 1.06789 10.932 1.58789 10.332C 2.10789 9.732 2.83189 9.432 3.75989 9.432C 4.68789 9.432 5.41189 9.732 5.93189 10.332C 6.45189 10.932 6.71189 11.776 6.71189 12.864L 6.71189 14.736C 6.71189 15.856 6.45189 16.708 5.93189 17.292C 5.41189 17.876 4.68789 18.168 3.75989 18.168C 2.83189 18.168 2.10789 17.876 1.58789 17.292C 1.06789 16.708 0.807891 15.856 0.807891 14.736L 0.807891 12.864ZM 3.75989 17.256C 4.40789 17.256 4.89189 17.032 5.21189 16.584C 5.53989 16.128 5.70389 15.488 5.70389 14.664L 5.70389 12.936C 5.70389 12.552 5.66389 12.204 5.58389 11.892C 5.50389 11.572 5.37989 11.3 5.21189 11.076C 5.05189 10.844 4.84789 10.664 4.59989 10.536C 4.35989 10.408 4.07989 10.344 3.75989 10.344C 3.43189 10.344 3.14789 10.408 2.90789 10.536C 2.66789 10.664 2.46389 10.844 2.29589 11.076C 2.13589 11.3 2.01589 11.572 1.93589 11.892C 1.85589 12.204 1.81589 12.552 1.81589 12.936L 1.81589 14.664C 1.81589 15.488 1.97589 16.128 2.29589 16.584C 2.62389 17.032 3.11189 17.256 3.75989 17.256ZM 2.99189 13.8C 2.99189 13.592 3.06789 13.412 3.21989 13.26C 3.37189 13.108 3.55189 13.032 3.75989 13.032C 3.96789 13.032 4.14789 13.108 4.29989 13.26C 4.45189 13.412 4.52789 13.592 4.52789 13.8C 4.52789 14.008 4.45189 14.188 4.29989 14.34C 4.14789 14.492 3.96789 14.568 3.75989 14.568C 3.55189 14.568 3.37189 14.492 3.21989 14.34C 3.06789 14.188 2.99189 14.008 2.99189 13.8ZM 10.6635 17.064L 10.6635 10.044L 10.5195 10.044L 9.13955 13.2L 8.14355 13.2L 8.14355 13.128L 9.71555 9.6L 11.6715 9.6L 11.6715 17.064L 14.0475 17.064L 14.0475 18L 8.28755 18L 8.28755 17.064L 10.6635 17.064ZM 18.0112 17.064L 18.0112 10.044L 17.8672 10.044L 16.4872 13.2L 15.4912 13.2L 15.4912 13.128L 17.0632 9.6L 19.0192 9.6L 19.0192 17.064L 21.3952 17.064L 21.3952 18L 15.6352 18L 15.6352 17.064L 18.0112 17.064ZM 22.8509 12.864C 22.8509 11.776 23.1109 10.932 23.6309 10.332C 24.1509 9.732 24.8749 9.432 25.8029 9.432C 26.7309 9.432 27.4549 9.732 27.9749 10.332C 28.4949 10.932 28.7549 11.776 28.7549 12.864L 28.7549 14.736C 28.7549 15.856 28.4949 16.708 27.9749 17.292C 27.4549 17.876 26.7309 18.168 25.8029 18.168C 24.8749 18.168 24.1509 17.876 23.6309 17.292C 23.1109 16.708 22.8509 15.856 22.8509 14.736L 22.8509 12.864ZM 25.8029 17.256C 26.4509 17.256 26.9349 17.032 27.2549 16.584C 27.5829 16.128 27.7469 15.488 27.7469 14.664L 27.7469 12.936C 27.7469 12.552 27.7069 12.204 27.6269 11.892C 27.5469 11.572 27.4229 11.3 27.2549 11.076C 27.0949 10.844 26.8909 10.664 26.6429 10.536C 26.4029 10.408 26.1229 10.344 25.8029 10.344C 25.4749 10.344 25.1909 10.408 24.9509 10.536C 24.7109 10.664 24.5069 10.844 24.3389 11.076C 24.1789 11.3 24.0589 11.572 23.9789 11.892C 23.8989 12.204 23.8589 12.552 23.8589 12.936L 23.8589 14.664C 23.8589 15.488 24.0189 16.128 24.3389 16.584C 24.6669 17.032 25.1549 17.256 25.8029 17.256ZM 25.0349 13.8C 25.0349 13.592 25.1109 13.412 25.2629 13.26C 25.4149 13.108 25.5949 13.032 25.8029 13.032C 26.0109 13.032 26.1909 13.108 26.3429 13.26C 26.4949 13.412 26.5709 13.592 26.5709 13.8C 26.5709 14.008 26.4949 14.188 26.3429 14.34C 26.1909 14.492 26.0109 14.568 25.8029 14.568C 25.5949 14.568 25.4149 14.492 25.2629 14.34C 25.1109 14.188 25.0349 14.008 25.0349 13.8ZM 30.1985 12.864C 30.1985 11.776 30.4585 10.932 30.9785 10.332C 31.4985 9.732 32.2225 9.432 33.1505 9.432C 34.0785 9.432 34.8025 9.732 35.3225 10.332C 35.8425 10.932 36.1025 11.776 36.1025 12.864L 36.1025 14.736C 36.1025 15.856 35.8425 16.708 35.3225 17.292C 34.8025 17.876 34.0785 18.168 33.1505 18.168C 32.2225 18.168 31.4985 17.876 30.9785 17.292C 30.4585 16.708 30.1985 15.856 30.1985 14.736L 30.1985 12.864ZM 33.1505 17.256C 33.7985 17.256 34.2825 17.032 34.6025 16.584C 34.9305 16.128 35.0945 15.488 35.0945 14.664L 35.0945 12.936C 35.0945 12.552 35.0545 12.204 34.9745 11.892C 34.8945 11.572 34.7705 11.3 34.6025 11.076C 34.4425 10.844 34.2385 10.664 33.9905 10.536C 33.7505 10.408 33.4705 10.344 33.1505 10.344C 32.8225 10.344 32.5385 10.408 32.2985 10.536C 32.0585 10.664 31.8545 10.844 31.6865 11.076C 31.5265 11.3 31.4065 11.572 31.3265 11.892C 31.2465 12.204 31.2065 12.552 31.2065 12.936L 31.2065 14.664C 31.2065 15.488 31.3665 16.128 31.6865 16.584C 32.0145 17.032 32.5025 17.256 33.1505 17.256ZM 32.3825 13.8C 32.3825 13.592 32.4585 13.412 32.6105 13.26C 32.7625 13.108 32.9425 13.032 33.1505 13.032C 33.3585 13.032 33.5385 13.108 33.6905 13.26C 33.8425 13.412 33.9185 13.592 33.9185 13.8C 33.9185 14.008 33.8425 14.188 33.6905 14.34C 33.5385 14.492 33.3585 14.568 33.1505 14.568C 32.9425 14.568 32.7625 14.492 32.6105 14.34C 32.4585 14.188 32.3825 14.008 32.3825 13.8ZM 40.0542 17.064L 40.0542 10.044L 39.9102 10.044L 38.5302 13.2L 37.5342 13.2L 37.5342 13.128L 39.1062 9.6L 41.0622 9.6L 41.0622 17.064L 43.4382 17.064L 43.4382 18L 37.6782 18L 37.6782 17.064L 40.0542 17.064ZM 47.4018 17.064L 47.4018 10.044L 47.2578 10.044L 45.8778 13.2L 44.8818 13.2L 44.8818 13.128L 46.4538 9.6L 48.4098 9.6L 48.4098 17.064L 50.7858 17.064L 50.7858 18L 45.0258 18L 45.0258 17.064L 47.4018 17.064ZM 54.7495 17.064L 54.7495 10.044L 54.6055 10.044L 53.2255 13.2L 52.2295 13.2L 52.2295 13.128L 53.8015 9.6L 55.7575 9.6L 55.7575 17.064L 58.1335 17.064L 58.1335 18L 52.3735 18L 52.3735 17.064L 54.7495 17.064ZM 59.5891 12.864C 59.5891 11.776 59.8491 10.932 60.3691 10.332C 60.8891 9.732 61.6131 9.432 62.5411 9.432C 63.4691 9.432 64.1931 9.732 64.7131 10.332C 65.2331 10.932 65.4931 11.776 65.4931 12.864L 65.4931 14.736C 65.4931 15.856 65.2331 16.708 64.7131 17.292C 64.1931 17.876 63.4691 18.168 62.5411 18.168C 61.6131 18.168 60.8891 17.876 60.3691 17.292C 59.8491 16.708 59.5891 15.856 59.5891 14.736L 59.5891 12.864ZM 62.5411 17.256C 63.1891 17.256 63.6731 17.032 63.9931 16.584C 64.3211 16.128 64.4851 15.488 64.4851 14.664L 64.4851 12.936C 64.4851 12.552 64.4451 12.204 64.3651 11.892C 64.2851 11.572 64.1611 11.3 63.9931 11.076C 63.8331 10.844 63.6291 10.664 63.3811 10.536C 63.1411 10.408 62.8611 10.344 62.5411 10.344C 62.2131 10.344 61.9291 10.408 61.6891 10.536C 61.4491 10.664 61.2451 10.844 61.0771 11.076C 60.9171 11.3 60.7971 11.572 60.7171 11.892C 60.6371 12.204 60.5971 12.552 60.5971 12.936L 60.5971 14.664C 60.5971 15.488 60.7571 16.128 61.0771 16.584C 61.4051 17.032 61.8931 17.256 62.5411 17.256ZM 61.7731 13.8C 61.7731 13.592 61.8491 13.412 62.0011 13.26C 62.1531 13.108 62.3331 13.032 62.5411 13.032C 62.7491 13.032 62.9291 13.108 63.0811 13.26C 63.2331 13.412 63.3091 13.592 63.3091 13.8C 63.3091 14.008 63.2331 14.188 63.0811 14.34C 62.9291 14.492 62.7491 14.568 62.5411 14.568C 62.3331 14.568 62.1531 14.492 62.0011 14.34C 61.8491 14.188 61.7731 14.008 61.7731 13.8ZM 69.4448 17.064L 69.4448 10.044L 69.3008 10.044L 67.9208 13.2L 66.9248 13.2L 66.9248 13.128L 68.4968 9.6L 70.4528 9.6L 70.4528 17.064L 72.8288 17.064L 72.8288 18L 67.0688 18L 67.0688 17.064L 69.4448 17.064ZM 74.2845 12.864C 74.2845 11.776 74.5445 10.932 75.0645 10.332C 75.5845 9.732 76.3085 9.432 77.2365 9.432C 78.1645 9.432 78.8885 9.732 79.4085 10.332C 79.9285 10.932 80.1885 11.776 80.1885 12.864L 80.1885 14.736C 80.1885 15.856 79.9285 16.708 79.4085 17.292C 78.8885 17.876 78.1645 18.168 77.2365 18.168C 76.3085 18.168 75.5845 17.876 75.0645 17.292C 74.5445 16.708 74.2845 15.856 74.2845 14.736L 74.2845 12.864ZM 77.2365 17.256C 77.8845 17.256 78.3685 17.032 78.6885 16.584C 79.0165 16.128 79.1805 15.488 79.1805 14.664L 79.1805 12.936C 79.1805 12.552 79.1405 12.204 79.0605 11.892C 78.9805 11.572 78.8565 11.3 78.6885 11.076C 78.5285 10.844 78.3245 10.664 78.0765 10.536C 77.8365 10.408 77.5565 10.344 77.2365 10.344C 76.9085 10.344 76.6245 10.408 76.3845 10.536C 76.1445 10.664 75.9405 10.844 75.7725 11.076C 75.6125 11.3 75.4925 11.572 75.4125 11.892C 75.3325 12.204 75.2925 12.552 75.2925 12.936L 75.2925 14.664C 75.2925 15.488 75.4525 16.128 75.7725 16.584C 76.1005 17.032 76.5885 17.256 77.2365 17.256ZM 76.4685 13.8C 76.4685 13.592 76.5445 13.412 76.6965 13.26C 76.8485 13.108 77.0285 13.032 77.2365 13.032C 77.4445 13.032 77.6245 13.108 77.7765 13.26C 77.9285 13.412 78.0045 13.592 78.0045 13.8C 78.0045 14.008 77.9285 14.188 77.7765 14.34C 77.6245 14.492 77.4445 14.568 77.2365 14.568C 77.0285 14.568 76.8485 14.492 76.6965 14.34C 76.5445 14.188 76.4685 14.008 76.4685 13.8ZM 0.807891 30.864C 0.807891 29.776 1.06789 28.932 1.58789 28.332C 2.10789 27.732 2.83189 27.432 3.75989 27.432C 4.68789 27.432 5.41189 27.732 5.93189 28.332C 6.45189 28.932 6.71189 29.776 6.71189 30.864L 6.71189 32.736C 6.71189 33.856 6.45189 34.708 5.93189 35.292C 5.41189 35.876 4.68789 36.168 3.75989 36.168C 2.83189 36.168 2.10789 35.876 1.58789 35.292C 1.06789 34.708 0.807891 33.856 0.807891 32.736L 0.807891 30.864ZM 3.75989 35.256C 4.40789 35.256 4.89189 35.032 5.21189 34.584C 5.53989 34.128 5.70389 33.488 5.70389 32.664L 5.70389 30.936C 5.70389 30.552 5.66389 30.204 5.58389 29.892C 5.50389 29.572 5.37989 29.3 5.21189 29.076C 5.05189 28.844 4.84789 28.664 4.59989 28.536C 4.35989 28.408 4.07989 28.344 3.75989 28.344C 3.43189 28.344 3.14789 28.408 2.90789 28.536C 2.66789 28.664 2.46389 28.844 2.29589 29.076C 2.13589 29.3 2.01589 29.572 1.93589 29.892C 1.85589 30.204 1.81589 30.552 1.81589 30.936L 1.81589 32.664C 1.81589 33.488 1.97589 34.128 2.29589 34.584C 2.62389 35.032 3.11189 35.256 3.75989 35.256ZM 2.99189 31.8C 2.99189 31.592 3.06789 31.412 3.21989 31.26C 3.37189 31.108 3.55189 31.032 3.75989 31.032C 3.96789 31.032 4.14789 31.108 4.29989 31.26C 4.45189 31.412 4.52789 31.592 4.52789 31.8C 4.52789 32.008 4.45189 32.188 4.29989 32.34C 4.14789 32.492 3.96789 32.568 3.75989 32.568C 3.55189 32.568 3.37189 32.492 3.21989 32.34C 3.06789 32.188 2.99189 32.008 2.99189 31.8ZM 10.6635 35.064L 10.6635 28.044L 10.5195 28.044L 9.13955 31.2L 8.14355 31.2L 8.14355 31.128L 9.71555 27.6L 11.6715 27.6L 11.6715 35.064L 14.0475 35.064L 14.0475 36L 8.28755 36L 8.28755 35.064L 10.6635 35.064ZM 18.0112 35.064L 18.0112 28.044L 17.8672 28.044L 16.4872 31.2L 15.4912 31.2L 15.4912 31.128L 17.0632 27.6L 19.0192 27.6L 19.0192 35.064L 21.3952 35.064L 21.3952 36L 15.6352 36L 15.6352 35.064L 18.0112 35.064ZM 22.8509 30.864C 22.8509 29.776 23.1109 28.932 23.6309 28.332C 24.1509 27.732 24.8749 27.432 25.8029 27.432C 26.7309 27.432 27.4549 27.732 27.9749 28.332C 28.4949 28.932 28.7549 29.776 28.7549 30.864L 28.7549 32.736C 28.7549 33.856 28.4949 34.708 27.9749 35.292C 27.4549 35.876 26.7309 36.168 25.8029 36.168C 24.8749 36.168 24.1509 35.876 23.6309 35.292C 23.1109 34.708 22.8509 33.856 22.8509 32.736L 22.8509 30.864ZM 25.8029 35.256C 26.4509 35.256 26.9349 35.032 27.2549 34.584C 27.5829 34.128 27.7469 33.488 27.7469 32.664L 27.7469 30.936C 27.7469 30.552 27.7069 30.204 27.6269 29.892C 27.5469 29.572 27.4229 29.3 27.2549 29.076C 27.0949 28.844 26.8909 28.664 26.6429 28.536C 26.4029 28.408 26.1229 28.344 25.8029 28.344C 25.4749 28.344 25.1909 28.408 24.9509 28.536C 24.7109 28.664 24.5069 28.844 24.3389 29.076C 24.1789 29.3 24.0589 29.572 23.9789 29.892C 23.8989 30.204 23.8589 30.552 23.8589 30.936L 23.8589 32.664C 23.8589 33.488 24.0189 34.128 24.3389 34.584C 24.6669 35.032 25.1549 35.256 25.8029 35.256ZM 25.0349 31.8C 25.0349 31.592 25.1109 31.412 25.2629 31.26C 25.4149 31.108 25.5949 31.032 25.8029 31.032C 26.0109 31.032 26.1909 31.108 26.3429 31.26C 26.4949 31.412 26.5709 31.592 26.5709 31.8C 26.5709 32.008 26.4949 32.188 26.3429 32.34C 26.1909 32.492 26.0109 32.568 25.8029 32.568C 25.5949 32.568 25.4149 32.492 25.2629 32.34C 25.1109 32.188 25.0349 32.008 25.0349 31.8ZM 32.7065 35.064L 32.7065 28.044L 32.5625 28.044L 31.1825 31.2L 30.1865 31.2L 30.1865 31.128L 31.7585 27.6L 33.7145 27.6L 33.7145 35.064L 36.0905 35.064L 36.0905 36L 30.3305 36L 30.3305 35.064L 32.7065 35.064ZM 37.5462 30.864C 37.5462 29.776 37.8062 28.932 38.3262 28.332C 38.8462 27.732 39.5702 27.432 40.4982 27.432C 41.4262 27.432 42.1502 27.732 42.6702 28.332C 43.1902 28.932 43.4502 29.776 43.4502 30.864L 43.4502 32.736C 43.4502 33.856 43.1902 34.708 42.6702 35.292C 42.1502 35.876 41.4262 36.168 40.4982 36.168C 39.5702 36.168 38.8462 35.876 38.3262 35.292C 37.8062 34.708 37.5462 33.856 37.5462 32.736L 37.5462 30.864ZM 40.4982 35.256C 41.1462 35.256 41.6302 35.032 41.9502 34.584C 42.2782 34.128 42.4422 33.488 42.4422 32.664L 42.4422 30.936C 42.4422 30.552 42.4022 30.204 42.3222 29.892C 42.2422 29.572 42.1182 29.3 41.9502 29.076C 41.7902 28.844 41.5862 28.664 41.3382 28.536C 41.0982 28.408 40.8182 28.344 40.4982 28.344C 40.1702 28.344 39.8862 28.408 39.6462 28.536C 39.4062 28.664 39.2022 28.844 39.0342 29.076C 38.8742 29.3 38.7542 29.572 38.6742 29.892C 38.5942 30.204 38.5542 30.552 38.5542 30.936L 38.5542 32.664C 38.5542 33.488 38.7142 34.128 39.0342 34.584C 39.3622 35.032 39.8502 35.256 40.4982 35.256ZM 39.7302 31.8C 39.7302 31.592 39.8062 31.412 39.9582 31.26C 40.1102 31.108 40.2902 31.032 40.4982 31.032C 40.7062 31.032 40.8862 31.108 41.0382 31.26C 41.1902 31.412 41.2662 31.592 41.2662 31.8C 41.2662 32.008 41.1902 32.188 41.0382 32.34C 40.8862 32.492 40.7062 32.568 40.4982 32.568C 40.2902 32.568 40.1102 32.492 39.9582 32.34C 39.8062 32.188 39.7302 32.008 39.7302 31.8ZM 47.4018 35.064L 47.4018 28.044L 47.2578 28.044L 45.8778 31.2L 44.8818 31.2L 44.8818 31.128L 46.4538 27.6L 48.4098 27.6L 48.4098 35.064L 50.7858 35.064L 50.7858 36L 45.0258 36L 45.0258 35.064L 47.4018 35.064ZM 52.2415 30.864C 52.2415 29.776 52.5015 28.932 53.0215 28.332C 53.5415 27.732 54.2655 27.432 55.1935 27.432C 56.1215 27.432 56.8455 27.732 57.3655 28.332C 57.8855 28.932 58.1455 29.776 58.1455 30.864L 58.1455 32.736C 58.1455 33.856 57.8855 34.708 57.3655 35.292C 56.8455 35.876 56.1215 36.168 55.1935 36.168C 54.2655 36.168 53.5415 35.876 53.0215 35.292C 52.5015 34.708 52.2415 33.856 52.2415 32.736L 52.2415 30.864ZM 55.1935 35.256C 55.8415 35.256 56.3255 35.032 56.6455 34.584C 56.9735 34.128 57.1375 33.488 57.1375 32.664L 57.1375 30.936C 57.1375 30.552 57.0975 30.204 57.0175 29.892C 56.9375 29.572 56.8135 29.3 56.6455 29.076C 56.4855 28.844 56.2815 28.664 56.0335 28.536C 55.7935 28.408 55.5135 28.344 55.1935 28.344C 54.8655 28.344 54.5815 28.408 54.3415 28.536C 54.1015 28.664 53.8975 28.844 53.7295 29.076C 53.5695 29.3 53.4495 29.572 53.3695 29.892C 53.2895 30.204 53.2495 30.552 53.2495 30.936L 53.2495 32.664C 53.2495 33.488 53.4095 34.128 53.7295 34.584C 54.0575 35.032 54.5455 35.256 55.1935 35.256ZM 54.4255 31.8C 54.4255 31.592 54.5015 31.412 54.6535 31.26C 54.8055 31.108 54.9855 31.032 55.1935 31.032C 55.4015 31.032 55.5815 31.108 55.7335 31.26C 55.8855 31.412 55.9615 31.592 55.9615 31.8C 55.9615 32.008 55.8855 32.188 55.7335 32.34C 55.5815 32.492 55.4015 32.568 55.1935 32.568C 54.9855 32.568 54.8055 32.492 54.6535 32.34C 54.5015 32.188 54.4255 32.008 54.4255 31.8ZM 62.0971 35.064L 62.0971 28.044L 61.9531 28.044L 60.5731 31.2L 59.5771 31.2L 59.5771 31.128L 61.1491 27.6L 63.1051 27.6L 63.1051 35.064L 65.4811 35.064L 65.4811 36L 59.7211 36L 59.7211 35.064L 62.0971 35.064ZM 69.4448 35.064L 69.4448 28.044L 69.3008 28.044L 67.9208 31.2L 66.9248 31.2L 66.9248 31.128L 68.4968 27.6L 70.4528 27.6L 70.4528 35.064L 72.8288 35.064L 72.8288 36L 67.0688 36L 67.0688 35.064L 69.4448 35.064ZM 76.7925 35.064L 76.7925 28.044L 76.6485 28.044L 75.2685 31.2L 74.2725 31.2L 74.2725 31.128L 75.8445 27.6L 77.8005 27.6L 77.8005 35.064L 80.1765 35.064L 80.1765 36L 74.4165 36L 74.4165 35.064L 76.7925 35.064ZM 0.807891 48.864C 0.807891 47.776 1.06789 46.932 1.58789 46.332C 2.10789 45.732 2.83189 45.432 3.75989 45.432C 4.68789 45.432 5.41189 45.732 5.93189 46.332C 6.45189 46.932 6.71189 47.776 6.71189 48.864L 6.71189 50.736C 6.71189 51.856 6.45189 52.708 5.93189 53.292C 5.41189 53.876 4.68789 54.168 3.75989 54.168C 2.83189 54.168 2.10789 53.876 1.58789 53.292C 1.06789 52.708 0.807891 51.856 0.807891 50.736L 0.807891 48.864ZM 3.75989 53.256C 4.40789 53.256 4.89189 53.032 5.21189 52.584C 5.53989 52.128 5.70389 51.488 5.70389 50.664L 5.70389 48.936C 5.70389 48.552 5.66389 48.204 5.58389 47.892C 5.50389 47.572 5.37989 47.3 5.21189 47.076C 5.05189 46.844 4.84789 46.664 4.59989 46.536C 4.35989 46.408 4.07989 46.344 3.75989 46.344C 3.43189 46.344 3.14789 46.408 2.90789 46.536C 2.66789 46.664 2.46389 46.844 2.29589 47.076C 2.13589 47.3 2.01589 47.572 1.93589 47.892C 1.85589 48.204 1.81589 48.552 1.81589 48.936L 1.81589 50.664C 1.81589 51.488 1.97589 52.128 2.29589 52.584C 2.62389 53.032 3.11189 53.256 3.75989 53.256ZM 2.99189 49.8C 2.99189 49.592 3.06789 49.412 3.21989 49.26C 3.37189 49.108 3.55189 49.032 3.75989 49.032C 3.96789 49.032 4.14789 49.108 4.29989 49.26C 4.45189 49.412 4.52789 49.592 4.52789 49.8C 4.52789 50.008 4.45189 50.188 4.29989 50.34C 4.14789 50.492 3.96789 50.568 3.75989 50.568C 3.55189 50.568 3.37189 50.492 3.21989 50.34C 3.06789 50.188 2.99189 50.008 2.99189 49.8ZM 10.6635 53.064L 10.6635 46.044L 10.5195 46.044L 9.13955 49.2L 8.14355 49.2L 8.14355 49.128L 9.71555 45.6L 11.6715 45.6L 11.6715 53.064L 14.0475 53.064L 14.0475 54L 8.28755 54L 8.28755 53.064L 10.6635 53.064ZM 15.5032 48.864C 15.5032 47.776 15.7632 46.932 16.2832 46.332C 16.8032 45.732 17.5272 45.432 18.4552 45.432C 19.3832 45.432 20.1072 45.732 20.6272 46.332C 21.1472 46.932 21.4072 47.776 21.4072 48.864L 21.4072 50.736C 21.4072 51.856 21.1472 52.708 20.6272 53.292C 20.1072 53.876 19.3832 54.168 18.4552 54.168C 17.5272 54.168 16.8032 53.876 16.2832 53.292C 15.7632 52.708 15.5032 51.856 15.5032 50.736L 15.5032 48.864ZM 18.4552 53.256C 19.1032 53.256 19.5872 53.032 19.9072 52.584C 20.2352 52.128 20.3992 51.488 20.3992 50.664L 20.3992 48.936C 20.3992 48.552 20.3592 48.204 20.2792 47.892C 20.1992 47.572 20.0752 47.3 19.9072 47.076C 19.7472 46.844 19.5432 46.664 19.2952 46.536C 19.0552 46.408 18.7752 46.344 18.4552 46.344C 18.1272 46.344 17.8432 46.408 17.6032 46.536C 17.3632 46.664 17.1592 46.844 16.9912 47.076C 16.8312 47.3 16.7112 47.572 16.6312 47.892C 16.5512 48.204 16.5112 48.552 16.5112 48.936L 16.5112 50.664C 16.5112 51.488 16.6712 52.128 16.9912 52.584C 17.3192 53.032 17.8072 53.256 18.4552 53.256ZM 17.6872 49.8C 17.6872 49.592 17.7632 49.412 17.9152 49.26C 18.0672 49.108 18.2472 49.032 18.4552 49.032C 18.6632 49.032 18.8432 49.108 18.9952 49.26C 19.1472 49.412 19.2232 49.592 19.2232 49.8C 19.2232 50.008 19.1472 50.188 18.9952 50.34C 18.8432 50.492 18.6632 50.568 18.4552 50.568C 18.2472 50.568 18.0672 50.492 17.9152 50.34C 17.7632 50.188 17.6872 50.008 17.6872 49.8ZM 25.3589 53.064L 25.3589 46.044L 25.2149 46.044L 23.8349 49.2L 22.8389 49.2L 22.8389 49.128L 24.4109 45.6L 26.3669 45.6L 26.3669 53.064L 28.7429 53.064L 28.7429 54L 22.9829 54L 22.9829 53.064L 25.3589 53.064ZM 32.7065 53.064L 32.7065 46.044L 32.5625 46.044L 31.1825 49.2L 30.1865 49.2L 30.1865 49.128L 31.7585 45.6L 33.7145 45.6L 33.7145 53.064L 36.0905 53.064L 36.0905 54L 30.3305 54L 30.3305 53.064L 32.7065 53.064ZM 40.0542 53.064L 40.0542 46.044L 39.9102 46.044L 38.5302 49.2L 37.5342 49.2L 37.5342 49.128L 39.1062 45.6L 41.0622 45.6L 41.0622 53.064L 43.4382 53.064L 43.4382 54L 37.6782 54L 37.6782 53.064L 40.0542 53.064ZM 44.8938 48.864C 44.8938 47.776 45.1538 46.932 45.6738 46.332C 46.1938 45.732 46.9178 45.432 47.8458 45.432C 48.7738 45.432 49.4978 45.732 50.0178 46.332C 50.5378 46.932 50.7978 47.776 50.7978 48.864L 50.7978 50.736C 50.7978 51.856 50.5378 52.708 50.0178 53.292C 49.4978 53.876 48.7738 54.168 47.8458 54.168C 46.9178 54.168 46.1938 53.876 45.6738 53.292C 45.1538 52.708 44.8938 51.856 44.8938 50.736L 44.8938 48.864ZM 47.8458 53.256C 48.4938 53.256 48.9778 53.032 49.2978 52.584C 49.6258 52.128 49.7898 51.488 49.7898 50.664L 49.7898 48.936C 49.7898 48.552 49.7498 48.204 49.6698 47.892C 49.5898 47.572 49.4658 47.3 49.2978 47.076C 49.1378 46.844 48.9338 46.664 48.6858 46.536C 48.4458 46.408 48.1658 46.344 47.8458 46.344C 47.5178 46.344 47.2338 46.408 46.9938 46.536C 46.7538 46.664 46.5498 46.844 46.3818 47.076C 46.2218 47.3 46.1018 47.572 46.0218 47.892C 45.9418 48.204 45.9018 48.552 45.9018 48.936L 45.9018 50.664C 45.9018 51.488 46.0618 52.128 46.3818 52.584C 46.7098 53.032 47.1978 53.256 47.8458 53.256ZM 47.0778 49.8C 47.0778 49.592 47.1538 49.412 47.3058 49.26C 47.4578 49.108 47.6378 49.032 47.8458 49.032C 48.0538 49.032 48.2338 49.108 48.3858 49.26C 48.5378 49.412 48.6138 49.592 48.6138 49.8C 48.6138 50.008 48.5378 50.188 48.3858 50.34C 48.2338 50.492 48.0538 50.568 47.8458 50.568C 47.6378 50.568 47.4578 50.492 47.3058 50.34C 47.1538 50.188 47.0778 50.008 47.0778 49.8ZM 52.2415 48.864C 52.2415 47.776 52.5015 46.932 53.0215 46.332C 53.5415 45.732 54.2655 45.432 55.1935 45.432C 56.1215 45.432 56.8455 45.732 57.3655 46.332C 57.8855 46.932 58.1455 47.776 58.1455 48.864L 58.1455 50.736C 58.1455 51.856 57.8855 52.708 57.3655 53.292C 56.8455 53.876 56.1215 54.168 55.1935 54.168C 54.2655 54.168 53.5415 53.876 53.0215 53.292C 52.5015 52.708 52.2415 51.856 52.2415 50.736L 52.2415 48.864ZM 55.1935 53.256C 55.8415 53.256 56.3255 53.032 56.6455 52.584C 56.9735 52.128 57.1375 51.488 57.1375 50.664L 57.1375 48.936C 57.1375 48.552 57.0975 48.204 57.0175 47.892C 56.9375 47.572 56.8135 47.3 56.6455 47.076C 56.4855 46.844 56.2815 46.664 56.0335 46.536C 55.7935 46.408 55.5135 46.344 55.1935 46.344C 54.8655 46.344 54.5815 46.408 54.3415 46.536C 54.1015 46.664 53.8975 46.844 53.7295 47.076C 53.5695 47.3 53.4495 47.572 53.3695 47.892C 53.2895 48.204 53.2495 48.552 53.2495 48.936L 53.2495 50.664C 53.2495 51.488 53.4095 52.128 53.7295 52.584C 54.0575 53.032 54.5455 53.256 55.1935 53.256ZM 54.4255 49.8C 54.4255 49.592 54.5015 49.412 54.6535 49.26C 54.8055 49.108 54.9855 49.032 55.1935 49.032C 55.4015 49.032 55.5815 49.108 55.7335 49.26C 55.8855 49.412 55.9615 49.592 55.9615 49.8C 55.9615 50.008 55.8855 50.188 55.7335 50.34C 55.5815 50.492 55.4015 50.568 55.1935 50.568C 54.9855 50.568 54.8055 50.492 54.6535 50.34C 54.5015 50.188 54.4255 50.008 54.4255 49.8ZM 59.5891 48.864C 59.5891 47.776 59.8491 46.932 60.3691 46.332C 60.8891 45.732 61.6131 45.432 62.5411 45.432C 63.4691 45.432 64.1931 45.732 64.7131 46.332C 65.2331 46.932 65.4931 47.776 65.4931 48.864L 65.4931 50.736C 65.4931 51.856 65.2331 52.708 64.7131 53.292C 64.1931 53.876 63.4691 54.168 62.5411 54.168C 61.6131 54.168 60.8891 53.876 60.3691 53.292C 59.8491 52.708 59.5891 51.856 59.5891 50.736L 59.5891 48.864ZM 62.5411 53.256C 63.1891 53.256 63.6731 53.032 63.9931 52.584C 64.3211 52.128 64.4851 51.488 64.4851 50.664L 64.4851 48.936C 64.4851 48.552 64.4451 48.204 64.3651 47.892C 64.2851 47.572 64.1611 47.3 63.9931 47.076C 63.8331 46.844 63.6291 46.664 63.3811 46.536C 63.1411 46.408 62.8611 46.344 62.5411 46.344C 62.2131 46.344 61.9291 46.408 61.6891 46.536C 61.4491 46.664 61.2451 46.844 61.0771 47.076C 60.9171 47.3 60.7971 47.572 60.7171 47.892C 60.6371 48.204 60.5971 48.552 60.5971 48.936L 60.5971 50.664C 60.5971 51.488 60.7571 52.128 61.0771 52.584C 61.4051 53.032 61.8931 53.256 62.5411 53.256ZM 61.7731 49.8C 61.7731 49.592 61.8491 49.412 62.0011 49.26C 62.1531 49.108 62.3331 49.032 62.5411 49.032C 62.7491 49.032 62.9291 49.108 63.0811 49.26C 63.2331 49.412 63.3091 49.592 63.3091 49.8C 63.3091 50.008 63.2331 50.188 63.0811 50.34C 62.9291 50.492 62.7491 50.568 62.5411 50.568C 62.3331 50.568 62.1531 50.492 62.0011 50.34C 61.8491 50.188 61.7731 50.008 61.7731 49.8ZM 69.4448 53.064L 69.4448 46.044L 69.3008 46.044L 67.9208 49.2L 66.9248 49.2L 66.9248 49.128L 68.4968 45.6L 70.4528 45.6L 70.4528 53.064L 72.8288 53.064L 72.8288 54L 67.0688 54L 67.0688 53.064L 69.4448 53.064ZM 76.7925 53.064L 76.7925 46.044L 76.6485 46.044L 75.2685 49.2L 74.2725 49.2L 74.2725 49.128L 75.8445 45.6L 77.8005 45.6L 77.8005 53.064L 80.1765 53.064L 80.1765 54L 74.4165 54L 74.4165 53.064L 76.7925 53.064ZM 0.807891 65.864C 0.807891 64.776 1.06789 63.932 1.58789 63.332C 2.10789 62.732 2.83189 62.432 3.75989 62.432C 4.68789 62.432 5.41189 62.732 5.93189 63.332C 6.45189 63.932 6.71189 64.776 6.71189 65.864L 6.71189 67.736C 6.71189 68.856 6.45189 69.708 5.93189 70.292C 5.41189 70.876 4.68789 71.168 3.75989 71.168C 2.83189 71.168 2.10789 70.876 1.58789 70.292C 1.06789 69.708 0.807891 68.856 0.807891 67.736L 0.807891 65.864ZM 3.75989 70.256C 4.40789 70.256 4.89189 70.032 5.21189 69.584C 5.53989 69.128 5.70389 68.488 5.70389 67.664L 5.70389 65.936C 5.70389 65.552 5.66389 65.204 5.58389 64.892C 5.50389 64.572 5.37989 64.3 5.21189 64.076C 5.05189 63.844 4.84789 63.664 4.59989 63.536C 4.35989 63.408 4.07989 63.344 3.75989 63.344C 3.43189 63.344 3.14789 63.408 2.90789 63.536C 2.66789 63.664 2.46389 63.844 2.29589 64.076C 2.13589 64.3 2.01589 64.572 1.93589 64.892C 1.85589 65.204 1.81589 65.552 1.81589 65.936L 1.81589 67.664C 1.81589 68.488 1.97589 69.128 2.29589 69.584C 2.62389 70.032 3.11189 70.256 3.75989 70.256ZM 2.99189 66.8C 2.99189 66.592 3.06789 66.412 3.21989 66.26C 3.37189 66.108 3.55189 66.032 3.75989 66.032C 3.96789 66.032 4.14789 66.108 4.29989 66.26C 4.45189 66.412 4.52789 66.592 4.52789 66.8C 4.52789 67.008 4.45189 67.188 4.29989 67.34C 4.14789 67.492 3.96789 67.568 3.75989 67.568C 3.55189 67.568 3.37189 67.492 3.21989 67.34C 3.06789 67.188 2.99189 67.008 2.99189 66.8ZM 10.6635 70.064L 10.6635 63.044L 10.5195 63.044L 9.13955 66.2L 8.14355 66.2L 8.14355 66.128L 9.71555 62.6L 11.6715 62.6L 11.6715 70.064L 14.0475 70.064L 14.0475 71L 8.28755 71L 8.28755 70.064L 10.6635 70.064ZM 15.5032 65.864C 15.5032 64.776 15.7632 63.932 16.2832 63.332C 16.8032 62.732 17.5272 62.432 18.4552 62.432C 19.3832 62.432 20.1072 62.732 20.6272 63.332C 21.1472 63.932 21.4072 64.776 21.4072 65.864L 21.4072 67.736C 21.4072 68.856 21.1472 69.708 20.6272 70.292C 20.1072 70.876 19.3832 71.168 18.4552 71.168C 17.5272 71.168 16.8032 70.876 16.2832 70.292C 15.7632 69.708 15.5032 68.856 15.5032 67.736L 15.5032 65.864ZM 18.4552 70.256C 19.1032 70.256 19.5872 70.032 19.9072 69.584C 20.2352 69.128 20.3992 68.488 20.3992 67.664L 20.3992 65.936C 20.3992 65.552 20.3592 65.204 20.2792 64.892C 20.1992 64.572 20.0752 64.3 19.9072 64.076C 19.7472 63.844 19.5432 63.664 19.2952 63.536C 19.0552 63.408 18.7752 63.344 18.4552 63.344C 18.1272 63.344 17.8432 63.408 17.6032 63.536C 17.3632 63.664 17.1592 63.844 16.9912 64.076C 16.8312 64.3 16.7112 64.572 16.6312 64.892C 16.5512 65.204 16.5112 65.552 16.5112 65.936L 16.5112 67.664C 16.5112 68.488 16.6712 69.128 16.9912 69.584C 17.3192 70.032 17.8072 70.256 18.4552 70.256ZM 17.6872 66.8C 17.6872 66.592 17.7632 66.412 17.9152 66.26C 18.0672 66.108 18.2472 66.032 18.4552 66.032C 18.6632 66.032 18.8432 66.108 18.9952 66.26C 19.1472 66.412 19.2232 66.592 19.2232 66.8C 19.2232 67.008 19.1472 67.188 18.9952 67.34C 18.8432 67.492 18.6632 67.568 18.4552 67.568C 18.2472 67.568 18.0672 67.492 17.9152 67.34C 17.7632 67.188 17.6872 67.008 17.6872 66.8ZM 25.3589 70.064L 25.3589 63.044L 25.2149 63.044L 23.8349 66.2L 22.8389 66.2L 22.8389 66.128L 24.4109 62.6L 26.3669 62.6L 26.3669 70.064L 28.7429 70.064L 28.7429 71L 22.9829 71L 22.9829 70.064L 25.3589 70.064ZM 30.1985 65.864C 30.1985 64.776 30.4585 63.932 30.9785 63.332C 31.4985 62.732 32.2225 62.432 33.1505 62.432C 34.0785 62.432 34.8025 62.732 35.3225 63.332C 35.8425 63.932 36.1025 64.776 36.1025 65.864L 36.1025 67.736C 36.1025 68.856 35.8425 69.708 35.3225 70.292C 34.8025 70.876 34.0785 71.168 33.1505 71.168C 32.2225 71.168 31.4985 70.876 30.9785 70.292C 30.4585 69.708 30.1985 68.856 30.1985 67.736L 30.1985 65.864ZM 33.1505 70.256C 33.7985 70.256 34.2825 70.032 34.6025 69.584C 34.9305 69.128 35.0945 68.488 35.0945 67.664L 35.0945 65.936C 35.0945 65.552 35.0545 65.204 34.9745 64.892C 34.8945 64.572 34.7705 64.3 34.6025 64.076C 34.4425 63.844 34.2385 63.664 33.9905 63.536C 33.7505 63.408 33.4705 63.344 33.1505 63.344C 32.8225 63.344 32.5385 63.408 32.2985 63.536C 32.0585 63.664 31.8545 63.844 31.6865 64.076C 31.5265 64.3 31.4065 64.572 31.3265 64.892C 31.2465 65.204 31.2065 65.552 31.2065 65.936L 31.2065 67.664C 31.2065 68.488 31.3665 69.128 31.6865 69.584C 32.0145 70.032 32.5025 70.256 33.1505 70.256ZM 32.3825 66.8C 32.3825 66.592 32.4585 66.412 32.6105 66.26C 32.7625 66.108 32.9425 66.032 33.1505 66.032C 33.3585 66.032 33.5385 66.108 33.6905 66.26C 33.8425 66.412 33.9185 66.592 33.9185 66.8C 33.9185 67.008 33.8425 67.188 33.6905 67.34C 33.5385 67.492 33.3585 67.568 33.1505 67.568C 32.9425 67.568 32.7625 67.492 32.6105 67.34C 32.4585 67.188 32.3825 67.008 32.3825 66.8ZM 40.0542 70.064L 40.0542 63.044L 39.9102 63.044L 38.5302 66.2L 37.5342 66.2L 37.5342 66.128L 39.1062 62.6L 41.0622 62.6L 41.0622 70.064L 43.4382 70.064L 43.4382 71L 37.6782 71L 37.6782 70.064L 40.0542 70.064ZM 47.4018 70.064L 47.4018 63.044L 47.2578 63.044L 45.8778 66.2L 44.8818 66.2L 44.8818 66.128L 46.4538 62.6L 48.4098 62.6L 48.4098 70.064L 50.7858 70.064L 50.7858 71L 45.0258 71L 45.0258 70.064L 47.4018 70.064ZM 54.7495 70.064L 54.7495 63.044L 54.6055 63.044L 53.2255 66.2L 52.2295 66.2L 52.2295 66.128L 53.8015 62.6L 55.7575 62.6L 55.7575 70.064L 58.1335 70.064L 58.1335 71L 52.3735 71L 52.3735 70.064L 54.7495 70.064ZM 62.0971 70.064L 62.0971 63.044L 61.9531 63.044L 60.5731 66.2L 59.5771 66.2L 59.5771 66.128L 61.1491 62.6L 63.1051 62.6L 63.1051 70.064L 65.4811 70.064L 65.4811 71L 59.7211 71L 59.7211 70.064L 62.0971 70.064ZM 69.4448 70.064L 69.4448 63.044L 69.3008 63.044L 67.9208 66.2L 66.9248 66.2L 66.9248 66.128L 68.4968 62.6L 70.4528 62.6L 70.4528 70.064L 72.8288 70.064L 72.8288 71L 67.0688 71L 67.0688 70.064L 69.4448 70.064ZM 76.7925 70.064L 76.7925 63.044L 76.6485 63.044L 75.2685 66.2L 74.2725 66.2L 74.2725 66.128L 75.8445 62.6L 77.8005 62.6L 77.8005 70.064L 80.1765 70.064L 80.1765 71L 74.4165 71L 74.4165 70.064L 76.7925 70.064ZM 0.807891 83.864C 0.807891 82.776 1.06789 81.932 1.58789 81.332C 2.10789 80.732 2.83189 80.432 3.75989 80.432C 4.68789 80.432 5.41189 80.732 5.93189 81.332C 6.45189 81.932 6.71189 82.776 6.71189 83.864L 6.71189 85.736C 6.71189 86.856 6.45189 87.708 5.93189 88.292C 5.41189 88.876 4.68789 89.168 3.75989 89.168C 2.83189 89.168 2.10789 88.876 1.58789 88.292C 1.06789 87.708 0.807891 86.856 0.807891 85.736L 0.807891 83.864ZM 3.75989 88.256C 4.40789 88.256 4.89189 88.032 5.21189 87.584C 5.53989 87.128 5.70389 86.488 5.70389 85.664L 5.70389 83.936C 5.70389 83.552 5.66389 83.204 5.58389 82.892C 5.50389 82.572 5.37989 82.3 5.21189 82.076C 5.05189 81.844 4.84789 81.664 4.59989 81.536C 4.35989 81.408 4.07989 81.344 3.75989 81.344C 3.43189 81.344 3.14789 81.408 2.90789 81.536C 2.66789 81.664 2.46389 81.844 2.29589 82.076C 2.13589 82.3 2.01589 82.572 1.93589 82.892C 1.85589 83.204 1.81589 83.552 1.81589 83.936L 1.81589 85.664C 1.81589 86.488 1.97589 87.128 2.29589 87.584C 2.62389 88.032 3.11189 88.256 3.75989 88.256ZM 2.99189 84.8C 2.99189 84.592 3.06789 84.412 3.21989 84.26C 3.37189 84.108 3.55189 84.032 3.75989 84.032C 3.96789 84.032 4.14789 84.108 4.29989 84.26C 4.45189 84.412 4.52789 84.592 4.52789 84.8C 4.52789 85.008 4.45189 85.188 4.29989 85.34C 4.14789 85.492 3.96789 85.568 3.75989 85.568C 3.55189 85.568 3.37189 85.492 3.21989 85.34C 3.06789 85.188 2.99189 85.008 2.99189 84.8ZM 10.6635 88.064L 10.6635 81.044L 10.5195 81.044L 9.13955 84.2L 8.14355 84.2L 8.14355 84.128L 9.71555 80.6L 11.6715 80.6L 11.6715 88.064L 14.0475 88.064L 14.0475 89L 8.28755 89L 8.28755 88.064L 10.6635 88.064ZM 15.5032 83.864C 15.5032 82.776 15.7632 81.932 16.2832 81.332C 16.8032 80.732 17.5272 80.432 18.4552 80.432C 19.3832 80.432 20.1072 80.732 20.6272 81.332C 21.1472 81.932 21.4072 82.776 21.4072 83.864L 21.4072 85.736C 21.4072 86.856 21.1472 87.708 20.6272 88.292C 20.1072 88.876 19.3832 89.168 18.4552 89.168C 17.5272 89.168 16.8032 88.876 16.2832 88.292C 15.7632 87.708 15.5032 86.856 15.5032 85.736L 15.5032 83.864ZM 18.4552 88.256C 19.1032 88.256 19.5872 88.032 19.9072 87.584C 20.2352 87.128 20.3992 86.488 20.3992 85.664L 20.3992 83.936C 20.3992 83.552 20.3592 83.204 20.2792 82.892C 20.1992 82.572 20.0752 82.3 19.9072 82.076C 19.7472 81.844 19.5432 81.664 19.2952 81.536C 19.0552 81.408 18.7752 81.344 18.4552 81.344C 18.1272 81.344 17.8432 81.408 17.6032 81.536C 17.3632 81.664 17.1592 81.844 16.9912 82.076C 16.8312 82.3 16.7112 82.572 16.6312 82.892C 16.5512 83.204 16.5112 83.552 16.5112 83.936L 16.5112 85.664C 16.5112 86.488 16.6712 87.128 16.9912 87.584C 17.3192 88.032 17.8072 88.256 18.4552 88.256ZM 17.6872 84.8C 17.6872 84.592 17.7632 84.412 17.9152 84.26C 18.0672 84.108 18.2472 84.032 18.4552 84.032C 18.6632 84.032 18.8432 84.108 18.9952 84.26C 19.1472 84.412 19.2232 84.592 19.2232 84.8C 19.2232 85.008 19.1472 85.188 18.9952 85.34C 18.8432 85.492 18.6632 85.568 18.4552 85.568C 18.2472 85.568 18.0672 85.492 17.9152 85.34C 17.7632 85.188 17.6872 85.008 17.6872 84.8ZM 22.8509 83.864C 22.8509 82.776 23.1109 81.932 23.6309 81.332C 24.1509 80.732 24.8749 80.432 25.8029 80.432C 26.7309 80.432 27.4549 80.732 27.9749 81.332C 28.4949 81.932 28.7549 82.776 28.7549 83.864L 28.7549 85.736C 28.7549 86.856 28.4949 87.708 27.9749 88.292C 27.4549 88.876 26.7309 89.168 25.8029 89.168C 24.8749 89.168 24.1509 88.876 23.6309 88.292C 23.1109 87.708 22.8509 86.856 22.8509 85.736L 22.8509 83.864ZM 25.8029 88.256C 26.4509 88.256 26.9349 88.032 27.2549 87.584C 27.5829 87.128 27.7469 86.488 27.7469 85.664L 27.7469 83.936C 27.7469 83.552 27.7069 83.204 27.6269 82.892C 27.5469 82.572 27.4229 82.3 27.2549 82.076C 27.0949 81.844 26.8909 81.664 26.6429 81.536C 26.4029 81.408 26.1229 81.344 25.8029 81.344C 25.4749 81.344 25.1909 81.408 24.9509 81.536C 24.7109 81.664 24.5069 81.844 24.3389 82.076C 24.1789 82.3 24.0589 82.572 23.9789 82.892C 23.8989 83.204 23.8589 83.552 23.8589 83.936L 23.8589 85.664C 23.8589 86.488 24.0189 87.128 24.3389 87.584C 24.6669 88.032 25.1549 88.256 25.8029 88.256ZM 25.0349 84.8C 25.0349 84.592 25.1109 84.412 25.2629 84.26C 25.4149 84.108 25.5949 84.032 25.8029 84.032C 26.0109 84.032 26.1909 84.108 26.3429 84.26C 26.4949 84.412 26.5709 84.592 26.5709 84.8C 26.5709 85.008 26.4949 85.188 26.3429 85.34C 26.1909 85.492 26.0109 85.568 25.8029 85.568C 25.5949 85.568 25.4149 85.492 25.2629 85.34C 25.1109 85.188 25.0349 85.008 25.0349 84.8ZM 30.1985 83.864C 30.1985 82.776 30.4585 81.932 30.9785 81.332C 31.4985 80.732 32.2225 80.432 33.1505 80.432C 34.0785 80.432 34.8025 80.732 35.3225 81.332C 35.8425 81.932 36.1025 82.776 36.1025 83.864L 36.1025 85.736C 36.1025 86.856 35.8425 87.708 35.3225 88.292C 34.8025 88.876 34.0785 89.168 33.1505 89.168C 32.2225 89.168 31.4985 88.876 30.9785 88.292C 30.4585 87.708 30.1985 86.856 30.1985 85.736L 30.1985 83.864ZM 33.1505 88.256C 33.7985 88.256 34.2825 88.032 34.6025 87.584C 34.9305 87.128 35.0945 86.488 35.0945 85.664L 35.0945 83.936C 35.0945 83.552 35.0545 83.204 34.9745 82.892C 34.8945 82.572 34.7705 82.3 34.6025 82.076C 34.4425 81.844 34.2385 81.664 33.9905 81.536C 33.7505 81.408 33.4705 81.344 33.1505 81.344C 32.8225 81.344 32.5385 81.408 32.2985 81.536C 32.0585 81.664 31.8545 81.844 31.6865 82.076C 31.5265 82.3 31.4065 82.572 31.3265 82.892C 31.2465 83.204 31.2065 83.552 31.2065 83.936L 31.2065 85.664C 31.2065 86.488 31.3665 87.128 31.6865 87.584C 32.0145 88.032 32.5025 88.256 33.1505 88.256ZM 32.3825 84.8C 32.3825 84.592 32.4585 84.412 32.6105 84.26C 32.7625 84.108 32.9425 84.032 33.1505 84.032C 33.3585 84.032 33.5385 84.108 33.6905 84.26C 33.8425 84.412 33.9185 84.592 33.9185 84.8C 33.9185 85.008 33.8425 85.188 33.6905 85.34C 33.5385 85.492 33.3585 85.568 33.1505 85.568C 32.9425 85.568 32.7625 85.492 32.6105 85.34C 32.4585 85.188 32.3825 85.008 32.3825 84.8ZM 40.0542 88.064L 40.0542 81.044L 39.9102 81.044L 38.5302 84.2L 37.5342 84.2L 37.5342 84.128L 39.1062 80.6L 41.0622 80.6L 41.0622 88.064L 43.4382 88.064L 43.4382 89L 37.6782 89L 37.6782 88.064L 40.0542 88.064ZM 44.8938 83.864C 44.8938 82.776 45.1538 81.932 45.6738 81.332C 46.1938 80.732 46.9178 80.432 47.8458 80.432C 48.7738 80.432 49.4978 80.732 50.0178 81.332C 50.5378 81.932 50.7978 82.776 50.7978 83.864L 50.7978 85.736C 50.7978 86.856 50.5378 87.708 50.0178 88.292C 49.4978 88.876 48.7738 89.168 47.8458 89.168C 46.9178 89.168 46.1938 88.876 45.6738 88.292C 45.1538 87.708 44.8938 86.856 44.8938 85.736L 44.8938 83.864ZM 47.8458 88.256C 48.4938 88.256 48.9778 88.032 49.2978 87.584C 49.6258 87.128 49.7898 86.488 49.7898 85.664L 49.7898 83.936C 49.7898 83.552 49.7498 83.204 49.6698 82.892C 49.5898 82.572 49.4658 82.3 49.2978 82.076C 49.1378 81.844 48.9338 81.664 48.6858 81.536C 48.4458 81.408 48.1658 81.344 47.8458 81.344C 47.5178 81.344 47.2338 81.408 46.9938 81.536C 46.7538 81.664 46.5498 81.844 46.3818 82.076C 46.2218 82.3 46.1018 82.572 46.0218 82.892C 45.9418 83.204 45.9018 83.552 45.9018 83.936L 45.9018 85.664C 45.9018 86.488 46.0618 87.128 46.3818 87.584C 46.7098 88.032 47.1978 88.256 47.8458 88.256ZM 47.0778 84.8C 47.0778 84.592 47.1538 84.412 47.3058 84.26C 47.4578 84.108 47.6378 84.032 47.8458 84.032C 48.0538 84.032 48.2338 84.108 48.3858 84.26C 48.5378 84.412 48.6138 84.592 48.6138 84.8C 48.6138 85.008 48.5378 85.188 48.3858 85.34C 48.2338 85.492 48.0538 85.568 47.8458 85.568C 47.6378 85.568 47.4578 85.492 47.3058 85.34C 47.1538 85.188 47.0778 85.008 47.0778 84.8ZM 54.7495 88.064L 54.7495 81.044L 54.6055 81.044L 53.2255 84.2L 52.2295 84.2L 52.2295 84.128L 53.8015 80.6L 55.7575 80.6L 55.7575 88.064L 58.1335 88.064L 58.1335 89L 52.3735 89L 52.3735 88.064L 54.7495 88.064ZM 61.7011 88.328C 61.7011 88.096 61.7811 87.9 61.9411 87.74C 62.1091 87.572 62.3091 87.488 62.5411 87.488C 62.7731 87.488 62.9691 87.572 63.1291 87.74C 63.2971 87.9 63.3811 88.096 63.3811 88.328C 63.3811 88.56 63.2971 88.76 63.1291 88.928C 62.9691 89.088 62.7731 89.168 62.5411 89.168C 62.3091 89.168 62.1091 89.088 61.9411 88.928C 61.7811 88.76 61.7011 88.56 61.7011 88.328ZM 69.0488 88.328C 69.0488 88.096 69.1288 87.9 69.2888 87.74C 69.4568 87.572 69.6568 87.488 69.8888 87.488C 70.1208 87.488 70.3168 87.572 70.4768 87.74C 70.6448 87.9 70.7288 88.096 70.7288 88.328C 70.7288 88.56 70.6448 88.76 70.4768 88.928C 70.3168 89.088 70.1208 89.168 69.8888 89.168C 69.6568 89.168 69.4568 89.088 69.2888 88.928C 69.1288 88.76 69.0488 88.56 69.0488 88.328ZM 76.3965 88.328C 76.3965 88.096 76.4765 87.9 76.6365 87.74C 76.8045 87.572 77.0045 87.488 77.2365 87.488C 77.4685 87.488 77.6645 87.572 77.8245 87.74C 77.9925 87.9 78.0765 88.096 78.0765 88.328C 78.0765 88.56 77.9925 88.76 77.8245 88.928C 77.6645 89.088 77.4685 89.168 77.2365 89.168C 77.0045 89.168 76.8045 89.088 76.6365 88.928C 76.4765 88.76 76.3965 88.56 76.3965 88.328Z"/>
<path id="path3_fill" d="M 0.72 7.864C 0.72 6.776 0.98 5.932 1.5 5.332C 2.02 4.732 2.744 4.432 3.672 4.432C 4.6 4.432 5.324 4.732 5.844 5.332C 6.364 5.932 6.624 6.776 6.624 7.864L 6.624 9.736C 6.624 10.76 6.404 11.564 5.964 12.148C 5.532 12.724 4.924 13.056 4.14 13.144L 4.14 13.648C 4.14 13.888 4.248 14.008 4.464 14.008L 5.472 14.008L 5.472 14.872L 4.128 14.872C 3.856 14.872 3.632 14.784 3.456 14.608C 3.288 14.432 3.204 14.208 3.204 13.936L 3.204 13.144C 2.412 13.048 1.8 12.712 1.368 12.136C 0.936 11.56 0.72 10.76 0.72 9.736L 0.72 7.864ZM 3.672 12.232C 4.32 12.232 4.804 12.012 5.124 11.572C 5.452 11.124 5.616 10.488 5.616 9.664L 5.616 7.936C 5.616 7.168 5.452 6.548 5.124 6.076C 4.804 5.604 4.32 5.368 3.672 5.368C 3.024 5.368 2.536 5.604 2.208 6.076C 1.888 6.548 1.728 7.168 1.728 7.936L 1.728 9.664C 1.728 10.488 1.888 11.124 2.208 11.572C 2.536 12.012 3.024 12.232 3.672 12.232ZM 14.1157 13L 13.1797 13L 13.1797 8.728C 13.1797 8.448 13.1157 8.22 12.9877 8.044C 12.8597 7.86 12.6557 7.768 12.3757 7.768C 12.1117 7.768 11.8957 7.868 11.7277 8.068C 11.5677 8.26 11.4877 8.56 11.4877 8.968L 11.4877 13L 10.5517 13L 10.5517 8.68C 10.5517 8.416 10.4797 8.2 10.3357 8.032C 10.1917 7.856 9.99966 7.768 9.75966 7.768C 9.47166 7.768 9.24766 7.872 9.08766 8.08C 8.93566 8.288 8.85966 8.56 8.85966 8.896L 8.85966 13L 7.92366 13L 7.92366 7.048L 8.85966 7.048L 8.85966 7.696L 9.00366 7.696C 9.10766 7.416 9.25966 7.212 9.45966 7.084C 9.65966 6.948 9.89566 6.88 10.1677 6.88C 10.4557 6.88 10.6917 6.956 10.8757 7.108C 11.0677 7.26 11.1997 7.456 11.2717 7.696L 11.4157 7.696C 11.6877 7.152 12.1197 6.88 12.7117 6.88C 13.1597 6.88 13.5037 7.024 13.7437 7.312C 13.9917 7.592 14.1157 7.96 14.1157 8.416L 14.1157 13ZM 20.0593 11.992L 19.9153 11.992C 19.7233 12.392 19.4553 12.688 19.1113 12.88C 18.7753 13.072 18.4193 13.168 18.0433 13.168C 17.6513 13.168 17.2873 13.104 16.9513 12.976C 16.6153 12.84 16.3193 12.644 16.0633 12.388C 15.8153 12.124 15.6193 11.804 15.4753 11.428C 15.3313 11.052 15.2593 10.616 15.2593 10.12L 15.2593 9.928C 15.2593 9.44 15.3313 9.008 15.4753 8.632C 15.6193 8.256 15.8153 7.94 16.0633 7.684C 16.3193 7.42 16.6153 7.22 16.9513 7.084C 17.2873 6.948 17.6433 6.88 18.0193 6.88C 18.4273 6.88 18.7953 6.972 19.1233 7.156C 19.4593 7.332 19.7233 7.608 19.9153 7.984L 20.0593 7.984L 20.0593 7.048L 20.9953 7.048L 20.9953 11.776C 20.9953 12.016 21.1033 12.136 21.3193 12.136L 21.6193 12.136L 21.6193 13L 20.9833 13C 20.7113 13 20.4873 12.912 20.3113 12.736C 20.1433 12.56 20.0593 12.336 20.0593 12.064L 20.0593 11.992ZM 18.1393 12.28C 18.4193 12.28 18.6753 12.228 18.9073 12.124C 19.1473 12.02 19.3513 11.872 19.5193 11.68C 19.6873 11.488 19.8193 11.26 19.9153 10.996C 20.0113 10.724 20.0593 10.424 20.0593 10.096L 20.0593 9.952C 20.0593 9.632 20.0113 9.34 19.9153 9.076C 19.8193 8.804 19.6833 8.572 19.5073 8.38C 19.3393 8.188 19.1353 8.04 18.8953 7.936C 18.6633 7.824 18.4113 7.768 18.1393 7.768C 17.8593 7.768 17.6033 7.82 17.3713 7.924C 17.1393 8.028 16.9353 8.176 16.7593 8.368C 16.5913 8.552 16.4593 8.78 16.3633 9.052C 16.2673 9.316 16.2193 9.608 16.2193 9.928L 16.2193 10.12C 16.2193 10.8 16.3953 11.332 16.7473 11.716C 17.1073 12.092 17.5713 12.28 18.1393 12.28ZM 22.907 4.6L 28.523 4.6L 28.523 6.064L 24.983 11.416C 24.815 11.672 24.687 11.892 24.599 12.076C 24.511 12.26 24.467 12.448 24.467 12.64L 24.467 13L 23.483 13L 23.483 12.568C 23.483 12.424 23.495 12.288 23.519 12.16C 23.551 12.032 23.595 11.904 23.651 11.776C 23.715 11.64 23.791 11.5 23.879 11.356C 23.975 11.204 24.087 11.032 24.215 10.84L 27.659 5.68L 27.659 5.536L 22.907 5.536L 22.907 4.6ZM 30.4346 4.6L 31.4426 4.6L 31.4426 12.064L 35.8346 12.064L 35.8346 13L 30.4346 13L 30.4346 4.6ZM 38.8143 13L 37.8063 13L 37.8063 4.6L 38.8143 4.6L 38.8143 8.32L 39.0903 8.32L 42.3183 4.6L 43.5663 4.6L 43.5663 4.672L 40.0863 8.728L 40.0863 8.872L 43.7103 12.928L 43.7103 13L 42.4383 13L 39.0903 9.256L 38.8143 9.256L 38.8143 13ZM 46.6659 9.52L 46.8699 9.52L 49.1379 7.048L 50.2899 7.048L 50.2899 7.12L 47.8179 9.844L 47.8179 10.06L 50.5779 12.928L 50.5779 13L 49.4259 13L 46.8939 10.384L 46.6659 10.384L 46.6659 13L 45.7299 13L 45.7299 4.6L 46.6659 4.6L 46.6659 9.52ZM 51.7576 4.6L 52.8376 4.6L 55.0336 12.568L 55.1776 12.568L 57.3736 4.6L 58.4536 4.6L 56.0776 13L 54.1336 13L 51.7576 4.6ZM 65.4412 10.096C 65.4412 10.592 65.3573 11.032 65.1893 11.416C 65.0293 11.792 64.8133 12.112 64.5413 12.376C 64.2692 12.632 63.9492 12.828 63.5812 12.964C 63.2212 13.1 62.8453 13.168 62.4532 13.168C 62.0532 13.168 61.6732 13.1 61.3132 12.964C 60.9532 12.828 60.6373 12.632 60.3653 12.376C 60.0933 12.112 59.8732 11.792 59.7052 11.416C 59.5453 11.032 59.4652 10.592 59.4652 10.096L 59.4652 9.952C 59.4652 9.464 59.5453 9.032 59.7052 8.656C 59.8732 8.272 60.0933 7.948 60.3653 7.684C 60.6453 7.42 60.9652 7.22 61.3252 7.084C 61.6852 6.948 62.0612 6.88 62.4532 6.88C 62.8453 6.88 63.2212 6.948 63.5812 7.084C 63.9412 7.22 64.2572 7.42 64.5293 7.684C 64.8093 7.948 65.0293 8.272 65.1893 8.656C 65.3573 9.032 65.4412 9.464 65.4412 9.952L 65.4412 10.096ZM 62.4532 12.28C 62.7412 12.28 63.0052 12.232 63.2452 12.136C 63.4932 12.032 63.7093 11.884 63.8933 11.692C 64.0773 11.5 64.2212 11.272 64.3252 11.008C 64.4292 10.736 64.4813 10.432 64.4813 10.096L 64.4813 9.952C 64.4813 9.632 64.4292 9.34 64.3252 9.076C 64.2212 8.804 64.0773 8.572 63.8933 8.38C 63.7093 8.188 63.4932 8.04 63.2452 7.936C 62.9973 7.824 62.7332 7.768 62.4532 7.768C 62.1732 7.768 61.9093 7.824 61.6613 7.936C 61.4133 8.04 61.1972 8.188 61.0132 8.38C 60.8293 8.572 60.6852 8.804 60.5812 9.076C 60.4772 9.34 60.4252 9.632 60.4252 9.952L 60.4252 10.096C 60.4252 10.432 60.4772 10.736 60.5812 11.008C 60.6852 11.272 60.8293 11.5 61.0132 11.692C 61.1972 11.884 61.4093 12.032 61.6493 12.136C 61.8972 12.232 62.1653 12.28 62.4532 12.28ZM 68.9609 12.328C 68.9609 12.096 69.0409 11.9 69.2009 11.74C 69.3689 11.572 69.5689 11.488 69.8009 11.488C 70.0329 11.488 70.2289 11.572 70.3889 11.74C 70.5569 11.9 70.6409 12.096 70.6409 12.328C 70.6409 12.56 70.5569 12.76 70.3889 12.928C 70.2289 13.088 70.0329 13.168 69.8009 13.168C 69.5689 13.168 69.3689 13.088 69.2009 12.928C 69.0409 12.76 68.9609 12.56 68.9609 12.328ZM 76.3086 12.328C 76.3086 12.096 76.3886 11.9 76.5486 11.74C 76.7166 11.572 76.9166 11.488 77.1486 11.488C 77.3806 11.488 77.5766 11.572 77.7366 11.74C 77.9046 11.9 77.9886 12.096 77.9886 12.328C 77.9886 12.56 77.9046 12.76 77.7366 12.928C 77.5766 13.088 77.3806 13.168 77.1486 13.168C 76.9166 13.168 76.7166 13.088 76.5486 12.928C 76.3886 12.76 76.3086 12.56 76.3086 12.328ZM 83.6562 12.328C 83.6562 12.096 83.7362 11.9 83.8962 11.74C 84.0642 11.572 84.2642 11.488 84.4962 11.488C 84.7282 11.488 84.9242 11.572 85.0842 11.74C 85.2522 11.9 85.3362 12.096 85.3362 12.328C 85.3362 12.56 85.2522 12.76 85.0842 12.928C 84.9242 13.088 84.7282 13.168 84.4962 13.168C 84.2642 13.168 84.0642 13.088 83.8962 12.928C 83.7362 12.76 83.6562 12.56 83.6562 12.328Z"/>
<path id="path4_fill" d="M 34.564 5.76333C 34.3774 5.76333 34.1907 5.71667 34.0274 5.62333C 29.5474 3.31333 25.674 2.33333 21.0307 2.33333C 16.4107 2.33333 12.024 3.43 8.03404 5.62333C 7.47404 5.92667 6.77404 5.71667 6.44737 5.15667C 6.14404 4.59667 6.35404 3.87333 6.91404 3.57C 11.254 1.21333 16.014 0 21.0307 0C 26.0007 0 30.3407 1.09667 35.1007 3.54667C 35.684 3.85 35.894 4.55 35.5907 5.11C 35.3807 5.53 34.984 5.76333 34.564 5.76333L 34.564 5.76333ZM 1.17404 18.0133C 0.940704 18.0133 0.707371 17.9433 0.497371 17.8033C -0.0392961 17.43 -0.155963 16.7067 0.21737 16.17C 2.52737 12.9033 5.46737 10.3367 8.96737 8.54C 16.294 4.76 25.674 4.73667 33.024 8.51667C 36.524 10.3133 39.464 12.8567 41.774 16.1C 42.1474 16.6133 42.0307 17.36 41.494 17.7333C 40.9574 18.1067 40.234 17.99 39.8607 17.4533C 37.7607 14.5133 35.1007 12.2033 31.9507 10.5933C 25.254 7.16333 16.6907 7.16333 10.0174 10.6167C 6.84404 12.25 4.18404 14.5833 2.08404 17.5233C 1.89737 17.85 1.54737 18.0133 1.17404 18.0133L 1.17404 18.0133ZM 15.7574 46.1767C 15.454 46.1767 15.1507 46.06 14.9407 45.8267C 12.9107 43.7967 11.814 42.49 10.2507 39.6667C 8.6407 36.7967 7.8007 33.2967 7.8007 29.54C 7.8007 22.61 13.7274 16.9633 21.0074 16.9633C 28.2874 16.9633 34.214 22.61 34.214 29.54C 34.214 30.1933 33.7007 30.7067 33.0474 30.7067C 32.394 30.7067 31.8807 30.1933 31.8807 29.54C 31.8807 23.8933 27.004 19.2967 21.0074 19.2967C 15.0107 19.2967 10.134 23.8933 10.134 29.54C 10.134 32.9 10.8807 36.0033 12.304 38.5233C 13.7974 41.2067 14.824 42.35 16.6207 44.17C 17.064 44.6367 17.064 45.36 16.6207 45.8267C 16.364 46.06 16.0607 46.1767 15.7574 46.1767ZM 32.4874 41.86C 29.7107 41.86 27.2607 41.16 25.254 39.7833C 21.7774 37.4267 19.7007 33.6 19.7007 29.54C 19.7007 28.8867 20.214 28.3733 20.8674 28.3733C 21.5207 28.3733 22.034 28.8867 22.034 29.54C 22.034 32.83 23.714 35.9333 26.5607 37.8467C 28.2174 38.9667 30.154 39.5033 32.4874 39.5033C 33.0474 39.5033 33.9807 39.4333 34.914 39.27C 35.544 39.1533 36.1507 39.5733 36.2674 40.2267C 36.384 40.8567 35.964 41.4633 35.3107 41.58C 33.9807 41.8367 32.814 41.86 32.4874 41.86L 32.4874 41.86ZM 27.7974 46.6667C 27.704 46.6667 27.5874 46.6433 27.494 46.62C 23.784 45.5933 21.3574 44.2167 18.814 41.72C 15.5474 38.4767 13.7507 34.16 13.7507 29.54C 13.7507 25.76 16.9707 22.68 20.9374 22.68C 24.904 22.68 28.124 25.76 28.124 29.54C 28.124 32.0367 30.294 34.0667 32.9774 34.0667C 35.6607 34.0667 37.8307 32.0367 37.8307 29.54C 37.8307 20.7433 30.2474 13.6033 20.914 13.6033C 14.2874 13.6033 8.2207 17.29 5.4907 23.0067C 4.5807 24.8967 4.11404 27.1133 4.11404 29.54C 4.11404 31.36 4.27737 34.23 5.67737 37.9633C 5.9107 38.57 5.60737 39.2467 5.0007 39.4567C 4.39404 39.69 3.71737 39.3633 3.50737 38.78C 2.36404 35.7233 1.80404 32.69 1.80404 29.54C 1.80404 26.74 2.3407 24.1967 3.3907 21.98C 6.49404 15.47 13.3774 11.2467 20.914 11.2467C 31.5307 11.2467 40.164 19.4367 40.164 29.5167C 40.164 33.2967 36.944 36.3767 32.9774 36.3767C 29.0107 36.3767 25.7907 33.2967 25.7907 29.5167C 25.7907 27.02 23.6207 24.99 20.9374 24.99C 18.254 24.99 16.084 27.02 16.084 29.5167C 16.084 33.5067 17.624 37.24 20.4474 40.04C 22.664 42.2333 24.7874 43.4467 28.0774 44.3567C 28.7074 44.52 29.0574 45.1733 28.894 45.78C 28.7774 46.3167 28.2874 46.6667 27.7974 46.6667L 27.7974 46.6667Z"/>
<path id="path5_stroke" d="M 52.0607 1.06066C 52.6464 0.474874 52.6464 -0.474874 52.0607 -1.06066L 42.5147 -10.6066C 41.9289 -11.1924 40.9792 -11.1924 40.3934 -10.6066C 39.8076 -10.0208 39.8076 -9.07107 40.3934 -8.48528L 48.8787 0L 40.3934 8.48528C 39.8076 9.07107 39.8076 10.0208 40.3934 10.6066C 40.9792 11.1924 41.9289 11.1924 42.5147 10.6066L 52.0607 1.06066ZM 0 1.5L 51 1.5L 51 -1.5L 0 -1.5L 0 1.5Z"/>
</defs>
</svg>
